<?xml version="1.0" encoding="utf-8"?>
<!-- Generator: Adobe Illustrator 27.9.5, SVG Export Plug-In . SVG Version: 9.03 Build 54986)  -->
<svg version="1.1" id="_Resurgent" xmlns="http://www.w3.org/2000/svg" xmlns:xlink="http://www.w3.org/1999/xlink" x="0px" y="0px"
	 viewBox="0 0 740.2 801.1" style="enable-background:new 0 0 740.2 801.1;" xml:space="preserve">
<style type="text/css">
	.st0{fill:#FFFFFF;}
	.st1{fill:#E848DF;}
</style>
<path class="st0" d="M92.6,801.1H0V0h740.2v135.3c-0.3-1.6-0.6-3.1-0.8-4.7c-0.5-4.2-0.8-8.4-1.3-12.6c0-0.2-0.1-0.5-0.1-0.7
	c-0.5-2.7-1.1-5.3-1.6-7.9c-0.6-3.2-1.5-6.3-3-9.2c-1.6-3-4.5-4.2-8.4-2.5c-3.1,1.4-4.6,3.9-4.7,7.3c-0.1,2.8,0.5,5.5,1,8.3
	c0.6,3.1,0.9,6.1,1.3,9.2c0.6,4.4,1.4,8.8,1.6,13.3c0.3,7.2,0.9,14.3-0.8,21.5c-1,4.1-2.5,7.8-5.9,10.4c-1,0.8-2.4,1.2-3.7,1.5
	c-3.3,0.6-5.8-1.2-8-3.4c-4.8-4.9-8.3-10.7-11.3-16.8c-2.7-5.4-5.3-10.8-7.3-16.5c-1.5-4.4-3.3-8.7-4.8-13.1
	c-1.3-3.5-2.5-7.1-3.6-10.6c-1.2-3.7-2.3-7.4-3.3-11.2c-0.9-3.3-1.5-6.6-2.3-9.9c-0.3-1.6-0.7-3.1-1-4.7c-0.7-3.3-1.3-6.5-1.9-9.8
	c-0.2-1.2,0.1-2.2,0.8-3.3c3.2-5.2,6.1-10.5,9.3-15.6c5.7-9.1,11-18.5,18.4-26.4c1.4-1.5,2.8-3.4,3.4-5.4c1-3.2,0.3-6.2-2.6-8.5
	c-2.8-2.3-5.9-2.7-9.2-1.4c-3.6,1.4-6.3,4.2-8.8,7.1c-5.4,6.1-9.9,12.9-14.4,19.7c-0.5,0.7-0.7,1.5-1.8,1.8c-0.4-1.5-0.9-2.7-1-4.1
	c-0.5-4.2-0.8-8.4-1.2-12.6c0-0.3-0.1-0.6-0.1-1c-0.5-3.2-1-6.4-1.7-9.6c-0.5-2.5-1-4.9-1.9-7.3c-1.6-4.6-3.4-5.7-8.2-5.6
	c-0.8,0-1.6,0.1-2.4,0.2c-1.9,0.3-3.4,1.2-4.6,2.7c-1.2,1.6-2,3.5-2,5.5c0,5.7-0.1,11.4,0.3,17c0.6,7.6,1.7,15.1,2.7,22.6
	c0.7,5.3,1.5,10.6,2.2,15.9c0.1,0.5,0.4,1.1,0.5,1.6c0.6,2.8,0.9,5.4-0.8,8.2c-3.7,5.8-7.9,11.1-12.1,16.4c-1.5,2-3.1,4-4.2,6.3
	c-1.2,2.4-1.2,5.2,0,7.7c1.6,3.3,5.6,4.8,9.5,3.7c4.6-1.2,8.3-3.8,11-7.7c0.5-0.7,1-1.3,1.6-2.1c0.5,0.8,0.9,1.4,1.1,1.9
	c0.8,2.7,1.5,5.4,2.3,8c1.1,3.9,2.1,7.8,3.3,11.7c1.1,3.8,2.4,7.5,3.6,11.2c1.4,4.1,2.6,8.3,4.3,12.3c3.1,7.6,6.5,15.1,10.8,22.1
	c4.3,7.1,9.2,13.7,15.3,19.3c5.6,5.2,12.1,8.3,20,7.6c4-0.4,7.5-1.6,10.9-3.7c6.8-4.3,10.3-11,12.7-18.3c1.2-3.6,2.1-7.3,2.3-11.2
	c0-0.7,0.4-1.4,0.6-2v643.2H96.5c0.4-1.3,1.8-0.8,2.6-1.3c2.8-1.9,5.3-4.1,6.8-7.1c0.7-1.4,1.3-3.1,1.2-4.5c-0.2-2.2-1-4.5-1.8-6.6
	c-3.3-7.8-6.8-15.5-10-23.3c-2.1-5-4-10-5.9-15.1c-1.2-3.2-2.2-6.4-3.3-9.6c-1.2-3.4-2.4-6.8-3.5-10.3c-1.2-3.7-2.2-7.5-3.3-11.2
	c-1.9-6.3-3.8-12.6-5.7-18.9c-0.2-0.6-0.1-1.4-0.1-2.2c0.9,0.1,1.6,0.1,2.3,0.3c2.9,1,5.8,2,8.7,3.1c4.4,1.6,8.7,3.2,13.1,4.8
	c3.6,1.3,7.2,2.5,10.8,3.8c2.2,0.8,4.5,1.5,6.8,2.2c3.7,1.1,7.4,2.2,11.1,3.4c3,0.9,5.9,1.9,8.9,2.7c4.2,1.2,8.5,2.2,12.7,3.3
	c3.5,0.9,7.1,1.8,10.6,2.6c3.6,0.8,7.1,1.5,10.7,2.2c1.5,0.3,2.9,0.6,4.4,1c3.6,0.9,7.2,1.6,11.1,0.9c2.6-0.5,4.4-1.7,5.6-3.9
	c1.7-2.9,2.5-6.1,2.5-9.5c0-2.8-1.2-4.7-3.3-6.2c-0.8-0.6-1.8-1.2-2.7-1.4c-2.9-0.8-5.9-1.5-8.8-2.1c-2.2-0.5-4.5-0.8-6.8-1.3
	c-2.2-0.5-4.5-1.1-6.7-1.6c-3.5-0.8-7-1.4-10.5-2.2c-1.4-0.3-2.8-0.7-4.1-1.1c-2.8-0.9-5.6-1.8-8.4-2.7c-2.8-0.9-5.6-1.8-8.4-2.7
	c-3.5-1.1-7.1-2.2-10.6-3.3c-2.6-0.8-5.2-1.5-7.7-2.2c-3.9-1.2-7.8-2.5-11.7-3.8c-3.6-1.2-7.3-2.2-10.9-3.4
	c-4.1-1.4-8.2-2.9-12.2-4.6c-3.8-1.6-7.4-3.4-11.4-5.3c0.8-0.8,1.4-1.3,2-1.9c2.6-2.3,5.2-4.5,7.8-6.9c7.7-7.2,14.8-15,21-23.5
	c5-6.8,9.5-14,13.6-21.3c4.9-8.8,9.1-17.8,12.5-27.3c1.8-5.1,3-10.4,4.4-15.6c0.5-1.8,0.8-3.6,1.1-5.4c0.6-3.7,1.5-7.4,1.6-11.1
	c0.3-6.2,0.2-12.5,0-18.7c-0.1-3-0.5-6.1-1.1-9c-1-4.4-2.1-8.8-3.7-13c-2.7-7-6.4-13.4-11.2-19.1c-3.9-4.6-8.4-8.7-13.8-11.5
	c-3.3-1.7-6.7-3.3-10.4-3.8c-3.6-0.5-7.2-1.2-10.9-1.2c-3.1,0-6.3,0.9-9.4,1.4c-4.2,0.8-7.9,2.6-11.6,4.6
	c-8.1,4.5-14.8,10.5-20.9,17.4c-5.4,6-10.2,12.5-14.4,19.3c-1,1.6-2,2.1-3.9,2c-3.9-0.3-7.6,0.7-10.8,3c-3.9,2.8-6.5,7.7-4.1,13
	c1.3,2.8,2.6,5.6,3.9,8.4c0.6,1.2,0.6,2.2,0,3.4c-3.2,6.5-6.1,13.2-7.9,20.3c-1,3.9-1.9,7.8-1,12c0.8,3.4,2.2,6,4.9,8.1
	c3.5,2.6,9.1,2.7,11.4-2.5c0.7-1.7,1.4-3.4,2.2-5c0.7-1.5,0.9-3.3,2.5-4.5c9.1,25.6,14.7,51.9,20.2,78.5c-1.3,0.7-2.7,1.4-4.1,2.2
	c-2.9,1.7-5,4.2-5.6,7.5c-0.9,4.8,0.4,9,4.1,12.3c2.9,2.5,6.2,4.4,9.5,6.1c1.3,0.7,2,1.6,2.2,3.1c0.3,2,0.8,4,1.3,6s1,4,1.5,6
	c0.5,2.2,1,4.5,1.6,6.7c0.8,3.2,1.7,6.5,2.5,9.7c1.1,4.1,2.1,8.3,3.3,12.4c0.8,2.7,1.7,5.4,2.5,8.1c0.8,2.7,1.4,5.3,2.3,8
	c2,5.9,3.9,11.8,6,17.6c2.1,5.8,4.3,11.7,6.7,17.4c2.2,5.4,4.7,10.8,7.2,16c1.3,2.7,2.9,5.3,5.8,6.7
	C90.5,800.3,91.6,800.7,92.6,801.1L92.6,801.1z M641.1,180.6c0.2,1.3,0.2,2.3,0.5,3.3c0.9,3.2,1.7,6.5,2.8,9.6
	c1.4,4.2,2.8,8.4,4.5,12.5c2.7,6.5,6.2,12.6,10.6,18.1c4.3,5.4,9.2,10.3,15.3,13.9c4.8,2.9,9.8,4.7,15.3,5.5
	c5.5,0.8,10.4-0.4,14.6-4.2c3.1-2.8,3.1-6.4,2.7-10.1c0-0.4-0.4-0.7-0.6-1c-1.2-2-3.3-2.6-5.4-3.1c-2.8-0.8-5.7-1.3-8.5-2.2
	c-5.8-2.1-10.9-5.5-15-10.2c-4.8-5.4-8.5-11.4-11.3-18c-1.5-3.5-2.8-7-4-10.6c-1-3.1-1.6-6.3-2.2-9.5c-0.9-4.6-2-9.2-2.6-13.8
	c-0.7-6-1-12.1-1.5-18.2c-0.3-4.6-0.5-9.3-1-13.9c-0.5-4.2-2.3-7.7-5.9-10.1c-1.7-1.1-3.6-1.9-5.6-1.3c-1.6,0.5-3.2,1.3-4.5,2.5
	c-3.5,3.1-5.3,7.3-6.8,11.5c-1.3,3.9-2.3,7.9-3.3,11.9c-1,4.3-1.9,8.7-2.7,13.1c-0.8,4.9-1.4,9.9-1.9,14.9
	c-0.5,5.2-0.8,10.3-1.2,15.5c-0.1,0.7-0.2,1.5-0.2,2.2l-0.6,0c-0.5-2.2-1-4.5-1.4-6.7c-0.6-3.1-1.3-6.3-1.7-9.4
	c-0.5-3.7-0.9-7.4-2.1-11c-1.8-5.6-6-7.6-11.3-6.6c-2.5,0.5-4.9,1.7-5.7,4.5c-0.4,1.4-0.8,2.9-1.2,4.3c-0.7,2.4-0.6,4.9-0.2,7.4
	c0.4,3.1,1,6.1,1.5,9.2c0.4,2.5,0.8,5,1.2,7.5c0.3,1.7,0.8,3.4,1.1,5.1c0.5,2.3,1.1,4.6,1.7,6.9c0.4,1.9,0.8,3.7,1.3,5.6
	c0.5,2.2,1.1,4.3,1.7,6.5c0.3,1.1,0.5,2.3,0.8,3.4c-0.5,0.2-0.8,0.3-1.1,0.3c-2.6,0-4.2,1.6-5.2,3.6c-0.8,1.5-1.2,3.3-1.3,5
	c-0.4,6.5-0.5,13.1-0.8,19.6c-0.2,4.3-0.1,8.6-1.1,12.9c-0.8,3.6-1.3,7.4-2,11c-1.2,6-3.3,11.7-6.2,17.1c-2.9,5.5-6.7,10.3-11.8,14
	c-4.3,3.2-9,4.6-14.3,3.8c-3.5-0.6-5.8-2.7-7.9-5.3c0.6-1,1.2-1.9,1.7-2.7c3.2-5.7,6.2-11.4,8.4-17.5c1.1-3,2.2-6.1,3.2-9.2
	c1-3.4,2-6.9,2.7-10.4c0.8-4.1,1.1-8.4,1.6-12.6c0.8-6.4-0.1-12.8-0.8-19.1c-0.3-2.8-1.2-5.4-1.8-8.2c-1.2-5.6-3.2-10.9-6.5-15.7
	c-1.9-2.8-4.3-5.1-7.5-6.2c-6-1.9-11.3-0.3-16,3.5c-3.4,2.8-6,6.3-8.1,10.1c-2.2,3.9-4,7.9-5,12.2c-0.9,3.6-2,7.2-2.7,10.8
	c-0.7,4-1,8.1-1.5,12.1c-1,8.2-0.8,16.4-0.3,24.7c0.1,1.4-0.1,2.6-0.7,3.9c-0.4,0.9-0.6,1.8-0.7,2.7c-0.2,2.4,0.4,4.7,0.9,7.1
	c0.9,4.5,1.7,9.1,2,13.7c0.6,7.7,0.8,15.5,1.3,23.2c0.3,5.8-0.7,11.5-1.2,17.2c-0.4,4.1-1.3,8.2-2,12.3c-0.3,1.6-0.8,3.2-1.2,4.9
	c-0.9-1.6-1.5-3.1-2-4.7c-0.9-2.7-1.8-5.4-2.5-8.1c-0.8-3-1.5-6-2.3-9c-0.9-3.7-1.9-7.4-2.7-11.1c-0.9-4-1.6-8-2.3-12
	c-0.4-2-0.8-3.9-1.1-5.9c-0.5-2.6-1.1-5.3-1.5-8c-0.5-2.9-0.7-5.8-1.1-8.8c-0.2-1.9-1.4-3-3.2-3.3c-1.6-0.3-3.1-0.5-4.7-0.7
	c-1-0.1-1.6-0.6-1.9-1.5c-1-2.6-1.9-5.2-3.1-7.7c-2.4-4.8-5.3-9.2-9.7-12.4c-1.8-1.3-3.7-2.3-5.8-2.6c-5.2-0.7-10.1,0.5-14.4,3.5
	c-5.4,3.8-9.1,9-11.9,14.8c-1.5,3.1-2.8,6.4-4,9.6c-0.9,2.5-1.5,5.2-2.1,7.8c-0.5,2.3-0.9,4.7-1.2,7c-0.6,3.9-1.3,7.9-1.6,11.8
	c-0.3,3.3-0.2,6.7-0.2,10.1c0,2.6,0.1,5.3,0.1,7.9c0,0.7-0.3,1.8-0.8,2c-2.6,1.2-3.5,3.7-4.3,6c-1.5,4.4-2.7,8.9-4,13.4
	c-1.5,5-3.5,9.9-6.2,14.3c-1.1,1.8-2.5,3.5-4.1,4.8c-2.2,1.9-4.2,1.6-5.8-0.8c-0.9-1.4-1.7-3.2-1.9-4.8c-0.9-7.7-0.1-15.3,1.3-22.9
	c0.7-4,1-7.9,0.6-11.9c-0.2-2-1.5-3.2-3.3-4c-2-0.9-4-1-6.1-0.9c-3.3,0-5.6,1.6-6.7,4.7c-2.1,5.5-3.9,11.2-5.1,17
	c-0.3,1.5-0.7,3.1-1.1,4.6c-0.6,2.4-1.2,4.8-1.6,7.2c-0.9,5-1.7,10.1-2.4,15.1c-0.9,6.3-2,12.6-2.6,19c-0.6,5.8-0.8,11.6-1.2,17.5
	c0,0.6-0.2,1.1-0.4,2.1c-2.1-5-2.7-9.7-3.3-14.4c-0.8-5.8-0.9-11.6-1.2-17.4c-0.1-1,0.1-2.1-0.1-3.1c-0.5-3-1-6-1.8-8.9
	c-0.9-3-3.9-4.2-6.1-4c-3,0.2-5.7,1.4-7.5,4c-1.9,2.6-3,5.6-3.4,8.8c-1,9.2-0.2,18.3,1,27.5c0,0.2,0.1,0.3,0.1,0.5
	c0.9,4.3,1.8,8.6,2.8,12.8c1,4.4,2.1,8.8,3.3,13.2c1.1,4.1,2.4,8.2,3.8,12.2c2,5.8,4.1,11.5,6.4,17.1c2.6,6.6,5.5,13.1,8.2,19.6
	c0.3,0.6,0.2,1.4,0.3,2.4c-2.7-0.3-4.9-0.5-7.2-1.2c-6-1.9-11-5.2-14.9-10c-5.2-6.2-7.7-13.7-9.9-21.3c-0.9-3.1-1.5-6.2-2.4-9.3
	c-1.1-4-2.5-8-3.7-12.1c-1-3.6-2.5-7-4.2-10.3c-2.8-5.5-8.6-6.5-13.2-4.3c-3.5,1.7-5.2,4.9-5.7,8.6c-0.5,4.4-0.4,8.9,0.8,13.3
	c0.8,3.2,1.7,6.5,3,9.5c1.1,2.7,2.3,5.4,3.2,8.2c1.5,4.2,2.8,8.5,4.1,12.8c1,3.1,2,6.2,2.6,9.4c1,5.1,1.6,10.2,2.5,15.3
	c1.1,6.5,1,13.1,0.7,19.6c-0.2,3.5-1,6.9-3.3,9.5c-2.7,3.1-4.4,3.2-7.3,0.9c-0.5-0.4-1-0.9-1.4-1.3c-3.7-4.3-6.1-9.2-8-14.5
	c-1.2-3.3-2.2-6.6-3.2-9.9c-1-3.6-2-7.2-2.7-10.9c-0.7-3.2-1.1-6.5-1.4-9.7c-0.6-6.4-1.3-12.7-1.7-19.1c-0.3-4.8,0-9.6-1.1-14.3
	c-0.5-2.2-1.3-4.3-3.4-5.4c-3.8-1.8-8.3-0.2-10.6,2.4c-1.9,2.3-3.2,5-3.7,7.8c-1,5.1-1.4,10.3-2.1,15.4c-0.1,1.1-0.2,2.2-0.4,3.7
	c-1-3.1-1.8-5.8-2.9-8.2c-1.9-4.3-4.7-8.1-8.7-10.7c-3.6-2.3-7.5-3.3-11.6-2.3c-4.7,1.1-8.8,3.5-12.6,6.5
	c-8.1,6.4-14.7,14.1-19.9,23c-3,5.1-5.6,10.5-7.3,16.2c-0.7,2.4-1.4,4.7-2,7.1c-0.6,2.5-1.4,5.1-1.6,7.7c-0.4,4.5-0.6,9.1-0.2,13.6
	c0.3,3.3,1.1,6.5,2.3,9.4c2.8,6.7,7.6,11.7,14,15.3c4.1,2.3,8.5,4.1,13.2,5.1c4.4,0.9,8.8,2.1,13.3,2.7c5,0.7,9.9,1.6,14.6,3.3
	c4.2,1.5,7.7,3.9,10,8c2.2,4,2.4,8.1,0.1,12.1c-4.3,7.8-11.3,11.2-19.9,11.7c-1.6,0.1-3.3-0.5-4.9-0.7c-2.5-0.2-4.6-1.2-6.6-2.5
	c-7.2-5-11.7-12-14-20.5c-0.3-1-0.7-2.1-1.4-3c-1.4-2-3.1-2.4-5.4-1.3c-0.9,0.4-1.9,1-2.8,1.1c-3.1,0.2-4.6,2.2-5.6,4.8
	c-1.3,3.1-1,6.4-1.1,9.7c-0.1,5-0.2,9.9-0.5,14.9c-0.3,4.4-0.7,8.8-1.3,13.1c-0.6,4.1-1.2,8.2-2.2,12.2c-0.9,3.5-2.3,6.9-3.6,10.2
	c-3,7.4-7.4,13.7-13.9,18.6c-3.3,2.4-6.8,4-10.9,4c-2.3,0-4.7,0-6.7-1.4c-1.7-1.2-3.6-2.3-4.4-4c2.1-4.1,4-8,6.1-11.8
	c3.3-6.1,5.6-12.6,7.6-19.2c1.3-4.2,2.2-8.6,2.9-13c0.6-3.8,1-7.8,1-11.7c0-4.2-0.4-8.5-0.7-12.7c-0.3-3-0.5-6-1.2-9
	c-1-4.1-2-8.1-3.7-12c-1.7-3.8-3.8-7.3-7-10.1c-2.6-2.3-5.7-3.3-9-3.2c-4.6,0.2-8.8,1.9-12.2,5.2c-5.2,5-8.5,11.1-10.9,17.8
	c-1.4,4-2.6,8-3.3,12.2c-0.6,4-1.6,8-1.8,12c-0.1,1.5-0.5,3-0.5,4.5c-0.1,7.6-0.3,15.2-0.1,22.8c0.1,3.5,1,7.1,1.6,10.6
	c0.4,2.2,0.5,4.5,1.2,6.6c1.4,4.4,3.1,8.7,4.8,12.9c3.4,8.1,8.6,14.9,15,20.8c3.8,3.5,8.1,6.2,13.2,7c5.5,0.8,11,0.6,16.4-1.6
	c6.5-2.6,11.8-6.7,16.3-11.9c4.9-5.5,8.7-11.8,11.7-18.6c1.6-3.5,3-7.1,4.2-10.8c1-2.8,1.6-5.6,2.3-8.5c1-4.2,2-8.5,2.9-12.8
	c0.6-2.8,0.8-5.7,1.2-8.5c0.2-1.3,0.8-1.5,1.9-0.7c1.2,1,2.5,2,3.8,2.9c5.6,4,11.8,6.4,18.7,6.6c3.5,0.1,7,0.2,10.4-0.8
	c2.7-0.8,5.3-1.6,7.8-2.8c5.5-2.6,10-6.3,14.2-10.6c6.1-6.1,10-13.4,11.7-21.8c1-5.1,1.1-10.2-0.6-15.4c-2.1-6.3-5.9-11.1-11.3-14.7
	c-5.8-3.8-12.5-5.4-19.1-6.8c-3.8-0.8-7.7-1.3-11.5-2c-5.3-0.8-10.4-2.4-15.1-5c-7-3.8-10.6-9.6-11.1-17.5c-0.4-6.1,0.9-12,2.8-17.8
	c1.7-5.1,3.7-10.1,6.8-14.5c2.4-3.5,5.1-6.7,8.9-8.8c2-1.1,4.2-1.3,6.2-0.1c2.7,1.6,4.5,4,4.4,7.4c0,2.7,0,5.3-0.8,8
	c-0.9,2.9-1.8,5.7-3.5,8.2c-2.6,4-5.4,8-8.1,12c-3,4.4-2.7,11.2,3.3,13.5c1.6,0.6,3.1,0.6,4.6,0c2.1-0.8,3.9-2.2,5.4-3.8
	c7.3-7.7,11.6-17,14.9-26.9c1.3-3.9,2-8,2.3-12.2c0-0.2,0.1-0.4,0.2-0.7c0.5,2,0.6,4,1,6c0.8,4.5,1.8,8.9,2.5,13.4
	c0.6,3.8,1.8,7.5,2.8,11.3c1.4,4.9,3.1,9.6,5.3,14.2c3.4,7.2,7.6,13.9,13.3,19.5c5.3,5.3,11.5,8.2,19.2,7.9
	c4.4-0.2,8.2-1.8,11.5-4.5c6.3-5.2,9.1-12.2,10-20.1c0.1-1,0.2-1.9,0.3-2.9c0.1-3.7,0.4-7.3,0.3-11c-0.1-4.1-0.5-8.3-0.8-12.4
	c0-0.6,0.1-1.2,0.2-2c0.7,0.5,1.2,0.7,1.6,1c1.9,1.4,3.7,3,5.7,4.2c5.7,3.7,11.8,6.2,18.7,6.3c2.4,0,4.8-0.5,7.1-0.8
	c5.4-0.8,10-3.2,14.2-6.7c4.8-3.9,5.5-8.9,4.3-14.4c-0.8-3.5-1.8-6.9-2.8-10.3c-0.4-1.5-0.8-3-1.2-4.6c-0.5-2-1.1-4-1.5-6
	c-0.5-2.2-0.8-4.4-1.2-6.6c-0.5-2.7-1.3-5.4-1.7-8.2c-0.6-4.2-1.1-8.4-1.5-12.6c-1.3-14.1-1.1-28.1,0.5-42.1
	c0.2-1.7,0.4-3.4,1.4-5.2c1.1,3.4,2.7,6,5.3,8c2.6,2,5.4,3.2,8.7,2.5c4.6-1.1,8.9-3.1,12.3-6.4c7.6-7.2,12.4-16,15.2-26
	c0.3-1.1,0.9-2.1,1.4-3.5c1.2,3.7,2.3,7.1,3.4,10.5c2.4,7.2,5.3,14,9.8,20.1c2.8,3.8,6,6.9,10.3,8.9c2.1,1,4.4,1.3,6.5,2
	c3.2,1,6.2,0.2,9.1-0.8c4.1-1.4,7-4.4,9.3-8.1c4.3-6.9,5.9-14.6,7-22.6c0.2-1.5,0.1-3,0.3-4.5c0.1-1,0.6-1.9,0.9-2.9
	c0.4,0.3,0.6,0.4,0.6,0.5c1.1,3.6,2.2,7.2,3.4,10.9c1.1,3.5,2.5,7,3.5,10.6c0.3,1.1,0.1,2.4-0.2,3.5c-0.4,1.6-1.1,3.1-1.6,4.7
	c-1.1,3.2-2.2,6.4-3.4,9.6c-1.2,3.3-2.4,6.7-3.5,10c-0.9,2.5-1.7,5-2.5,7.4c-1.2,3.5-2.4,6.9-3.5,10.4c-0.8,2.5-1.5,5.1-2.3,7.7
	c-0.9,3.2-1.9,6.4-2.6,9.6c-0.6,2.6-0.9,5.3-1.3,8c-0.6,4.3-1.3,8.5-1.6,12.8c-0.3,5.3-0.1,10.7,0.6,16c0.7,4.8,1.8,9.5,3.5,14
	c2,5.3,5.1,10,9,14.1c4.4,4.8,9.9,7.6,16.3,8.4c3.7,0.5,7.3-0.6,10.6-2.2c6.6-3.2,11.3-8.3,14.7-14.7c4.1-7.9,5.6-16.4,6.1-25.1
	c0.3-6.4,0.2-12.8-0.8-19.1c-0.7-4.6-1.2-9.2-1.9-13.8c-0.6-3.5-1.5-6.9-2.2-10.3c-0.7-3.3-1.4-6.7-2.2-10
	c-1.1-4.2-2.4-8.3-3.6-12.5c-1.3-4.4-2.5-8.9-3.8-13.3c-0.8-2.9-1.7-5.8-2.5-8.7c-0.7-2.4-1.4-4.9-2.3-7.2c-0.7-1.9-0.8-3.6,0-5.5
	c0.6-1.5,1-3,1.4-4.5c0.8-3,1.5-6,2.2-9c1.3-5.5,2.7-11,3.8-16.5c0.8-4.3,1.5-8.6,1.9-13c0.5-5.5,0.8-11,1.1-16.5
	c0.1-1.6,0-3.2,0.1-4.8c0-0.5,0.2-1,0.3-1.6c2.3,2,4.3,4,6.5,5.8c3.5,2.9,7.5,5,11.9,5.6c8.4,1.2,16.1-0.8,23.1-5.6
	c7.4-5.1,12.8-12,17.2-19.7c2.9-5.1,5.4-10.5,7.1-16.2c1.6-5.3,3.3-10.6,4.7-16c0.9-3.5,1.5-7.2,2-10.8c0.6-4.5,0.8-9.1,1.2-13.6
	c0.1-0.7,0.2-1.3,0.2-2c1.2,1.8,2,3.7,2.6,5.6c1.7,5.4,3.8,10.6,6.4,15.6c1.7,3.1,3.7,6,7.5,7c4.7,1.2,8.9-0.3,11.3-4.5
	c2.2-3.7,2.4-7.7,1.6-11.8c-0.5-2.8-1.3-5.6-1.9-8.4c-0.4-1.7-0.8-3.4-1.2-5.1c-0.5-2.4-1.2-4.8-1.6-7.2c-0.5-3-0.8-6-1.2-9
	c-0.6-4.8-1.2-9.6-1.6-14.5c-0.3-3.2-0.1-6.4-0.1-9.6c0-2.2,0-4.5,0.2-6.7c0.5-4.2,1.2-8.4,1.8-12.5
	C639.5,182.1,639.7,181.2,641.1,180.6L641.1,180.6z M394.6,193.6c0.2,0,0.3,0.1,0.5,0.1c0.1,0.3,0.2,0.6,0.2,0.9
	c0.3,5.4,1.5,10.5,2.9,15.6c1.3,4.5,2.9,8.8,5,13c3.9,7.6,8.9,14.1,15.9,19.2c3.7,2.7,7.6,4.8,12,5.8c2,0.4,4.1,0.6,6,1.2
	c3.4,1.1,6.8,0.4,9.9-0.7c5.9-2.3,8.3-5.9,7.5-12.4c-0.4-3.2-3-5.9-6.2-6.2c-2.8-0.3-5.6-0.7-8.4-0.8c-3.7-0.1-6.7-1.7-9.5-3.9
	c-7.6-5.7-11.5-13.6-14.1-22.4c-1-3.4-1.7-7-2.3-10.5c-0.7-4.2-1.3-8.4-1.7-12.6c-0.3-3.7-0.3-7.5-0.3-11.3c0-7,0.1-13.9,0.1-20.9
	c0-3.1-0.7-6.1-2-9c-1.5-3.4-5.9-5.4-9.4-4.4c-3.3,0.9-5.8,2.8-7.8,5.5c-4,5.6-5.9,12-7.7,18.5c-0.6,2.1-0.9,4.2-1.3,6.3
	c-0.5,2.6-1.2,5.1-1.6,7.7c-0.5,3.4-0.9,6.8-1.3,10.2c-0.7,6.4-1.3,12.9-2,19.3c-0.1,1.4-0.2,2.9-0.4,4.3c-0.1,0.8-0.4,1.6-0.6,2.5
	c-0.2,0-0.4,0-0.5,0c-0.2-1.4-0.4-2.7-0.6-4.1c-0.5-3.7-1.3-7.4-1.6-11.1c-0.4-4.3-0.1-8.6-1.1-12.9c-0.6-2.6-1.4-5.1-4.1-6.3
	c-3.2-1.5-8.5,0-10.9,2.9c-2.6,3.2-3.9,7.1-5.1,10.9c-0.9,2.9-1.5,5.8-2.3,8.8c-0.6,2.3-1.2,4.6-1.6,6.9c-0.5,2.6-0.8,5.2-1.2,7.8
	c-0.5,3.5-1.3,7.1-1.6,10.6c-0.5,5.5-0.8,11-1.2,16.5c0,0.1,0,0.2,0,0.2c-0.1,0.4-0.3,0.7-0.6,1.6c-1.9-6.2-3.3-12-4.4-17.9
	c-0.5-2.3-0.8-4.7-1.3-7c-0.5-2.6-1.2-5.1-1.6-7.7c-0.4-3.1-1-6.1-2.2-9c-1.7-3.9-5.6-4.9-8.9-3.2c-2.9,1.5-4.3,4.2-4.8,7.2
	c-0.9,5.8-0.2,11.6,0.1,17.5c0,0.3,0.1,0.6,0.2,0.9c0.5,3.1,1,6.3,1.6,9.4c0.4,2.5,0.7,5,1.3,7.5c0.8,3.6,1.8,7.2,2.6,10.9
	c0.8,3.2,1.4,6.5,2.3,9.7c1.5,5,3.1,10,4.8,15c1.7,5.2,3.2,10.4,5.2,15.5c2.7,6.8,5.7,13.4,8.6,20c0.1,0.4-0.1,0.9-0.1,1.3
	c-4.3-0.8-7.5-3.2-10.2-6.2c-5-5.5-8.4-11.9-11.4-18.5c-1.9-4.2-3.7-8.5-5.3-12.9c-1.7-4.7-3.3-9.5-4.6-14.3
	c-1-3.6-1.6-7.2-3.1-10.7c-1.2-3-2.9-5.4-6.3-6.2c-1.1-0.3-2.3-0.7-3.6-1.1c-0.4-0.9-0.8-2-1.3-3.1c-1.2-2.5-2.4-5.1-4.5-7.2
	c-4.3-4.2-9.6-4.2-14.8-3.1c-5.7,1.2-10.3,4.8-14.1,9.3c-4.4,5.2-7.5,11-9.6,17.5c-2.2,6.6-3.7,13.4-4,20.3c0,0.7-0.1,1.5-0.2,2.1
	c-1,4.9-0.7,9.9-0.3,14.8c0.3,4.4,1,8.7,1.6,13c0.3,2.5,0.6,5.1,1.2,7.5c1.1,4.5,2.5,9,3.8,13.6c1.2,4.3,2.8,8.5,4.7,12.6
	c0.9,2,1.2,4,1,6.2c-0.6,5-1,10-1.6,15c-0.3,2.7-0.6,5.4-1.2,8c-1.1,4.1-2.4,8.2-3.8,12.2c-2.2,6.4-5.6,12.1-10.3,16.9
	c-5.1,5.2-10.9,8.8-18.6,7.6c-3.6-0.5-5.9-2.7-7.9-5.1c2.4-4.8,4.8-9.2,6.9-13.8c2.1-4.5,4-9.2,5.7-13.8c0.9-2.5,1.5-5.2,2.1-7.8
	c0.5-2.2,0.7-4.6,1.2-6.8c1.1-4.7,1.5-9.5,1.6-14.2c0.1-4-0.4-8.1-0.8-12.2c-0.3-2.9-0.6-5.9-1.2-8.7c-0.7-3.1-1.7-6.1-2.6-9.1
	c-1.3-4.3-3.5-8.2-6.5-11.5c-2.8-3.2-6.5-4.8-10.7-4.7c-3.4,0.1-6.7,1.1-9.6,3.2c-3.9,2.8-6.9,6.5-9.2,10.7
	c-1.8,3.3-3.3,6.9-4.6,10.4c-1.1,2.9-1.9,5.9-2.6,8.9c-0.6,2.5-0.9,5.2-1.2,7.8c-0.6,4.6-1.4,9.1-1.6,13.8c-0.2,7.6-0.6,15.3,0.6,23
	c0.6,4,1.1,8,2,12c1,4.5,2.4,8.8,4.2,13.1c4.1,9.6,10,17.9,18.2,24.5c3.2,2.6,7,4.6,11,5.2c5,0.8,10.2,0.6,15.1-1
	c4.7-1.6,8.8-4.2,12.6-7.5c7.1-6.2,12.2-13.9,16.1-22.3c3.1-6.5,5.4-13.3,7.2-20.3c1.1-4.5,2.4-8.9,2.9-13.5c0.1-0.8,0.1-1.8,1.3-2
	c0.2,0.1,0.4,0.2,0.6,0.4c4.1,3.9,8.8,6.6,14.4,7.8c4.2,0.9,8.3,0.7,12.2-0.7c5.6-2.1,9.8-5.9,12.6-11.3c2.3-4.5,3.6-9.3,3.9-14.3
	c0.3-7.1,0.1-14.2-1.1-21.2c-0.1-0.6-0.4-1.2-0.5-1.8c-0.3-1.3-0.6-2.5-0.1-4.1c1.7,1.7,3.2,3.1,4.7,4.6c5.3,5.5,11.5,9.3,19.4,9.8
	c4,0.2,7.9,0,11.8-1.1c4.2-1.1,7.6-3.4,10.7-6.4c2.2-2.1,3.3-4.7,3.4-7.8c0.1-2.3-0.9-4.4-1.5-6.5c-1.1-3.8-2.7-7.4-4.1-11.1
	c-2.4-6.3-4-12.9-5.5-19.5c-0.9-4-1.5-8.1-2-12.2c-0.5-4-0.8-8-0.9-11.9c-0.2-4.4-0.2-8.8,0.5-13.1c0.6-3.9,0.1-8,1.2-11.9
	c0.1-0.5,0.3-0.9,0.6-1.7c0.9,3.2,1.6,5.9,2.4,8.7c1.5,5.1,2.8,10.3,4.4,15.4c1.4,4.2,3.1,8.2,4.6,12.4c1.9,5.5,4.3,10.9,7.1,16
	c1.4,2.5,2.8,5,5.1,6.7c3,2.3,6.2,2.4,9,0.3c3.9-2.9,5.2-6.9,4.5-11.6c-0.4-2.7-1.2-5.4-1.8-8.1c-0.9-3.6-1.9-7.2-2.6-10.9
	c-0.8-4.2-1.5-8.5-2-12.7c-0.5-4.5-0.9-9.1-1-13.6c-0.4-11.1-0.3-22.2,0.9-33.3C393.8,196.2,394.3,194.9,394.6,193.6L394.6,193.6z
	 M118,251.9c0.6,3.1,1,5.6,1.4,8c0.4,2.6,0.8,5.2,1.3,7.8c0.3,1.9,0.7,3.8,1.1,5.6c0.5,2.7,1.1,5.4,1.6,8.2c0.4,2.5,0.7,5,1.2,7.5
	c0.5,2.7,1.2,5.4,1.7,8.2c0.8,4.4,1.6,8.8,2.3,13.2c0.4,2,0.7,3.9,1.1,5.9c0.5,2.4,1.1,4.8,1.6,7.2s0.8,4.9,1.2,7.3
	c0.3,1.6,0.6,3.3,1,4.9c0.9,3.6,1.8,7.2,2.6,10.9c0.9,3.8,1.8,7.6,2.7,11.4c0.8,3,1.7,6,2.4,9c0.8,3.1,1.4,6.4,2.3,9.5
	c1.1,4.1,2.4,8.2,3.6,12.3c1.3,4.4,2.5,8.9,3.8,13.3c1.4,4.7,2.9,9.4,4.3,14.1c1.1,3.6,2.1,7.3,3.2,10.9c1.2,3.7,2.5,7.3,3.8,11
	c1.8,5.2,3.4,10.5,5.3,15.7c2.1,5.7,4.4,11.3,6.8,16.9c2.7,6.5,5.8,12.8,9.7,18.6c4.7,7.1,12.9,9.7,20.2,7c5.3-2,8.4-6.4,6.4-12.2
	c-0.7-1.9-1.6-3.8-2.4-5.6c-2.9-6-5.9-11.9-8.7-17.8c-2.2-4.6-4.2-9.4-6.1-14.1c-1.9-4.7-3.7-9.4-5.5-14.1c-1.2-3.1-2.4-6.2-3.5-9.4
	c-1.5-4.2-2.8-8.5-4.2-12.8c-1.2-3.7-2.5-7.5-3.7-11.2c-0.9-2.8-1.8-5.6-2.7-8.4c-0.8-2.6-1.6-5.1-2.4-7.7c-0.8-2.9-1.6-5.8-2.4-8.7
	c-0.9-3.1-1.8-6.2-2.6-9.4c-0.4-1.5-0.8-3.1-1.2-4.6c-0.9-3.4-1.9-6.7-2.8-10.1c-0.8-3.1-1.6-6.3-2.4-9.5c-0.6-2.2-1.1-4.4-1.7-6.7
	c-0.5-1.8-0.9-3.7-1.3-5.5c-0.5-2-1-4-1.5-6c-0.5-2.1-0.8-4.2-1.3-6.3c-0.3-1.6-0.7-3.3-1-4.9c-0.9-4-1.9-8.1-2.7-12.1
	c-0.9-4.3-1.6-8.6-2.4-12.9c-0.4-2-0.7-3.9-1.1-5.9c-0.6-3-1.1-5.9-1.6-8.9c-0.5-2.8-0.8-5.7-1.2-8.5c-0.5-3.1-1.3-6.1-1.6-9.1
	c-0.5-4.3-1-8.5-2.2-12.7c-0.5-1.8-1.2-3.6-2.2-5.2c-1-1.6-2.4-2.7-4.5-2.6c-0.7,0-1.5-0.1-2.5-0.1c0.4-0.8,0.6-1.2,0.9-1.6
	c5.1-7.1,10.9-13.6,16.8-19.9c9.9-10.6,20.1-20.9,30.2-31.3c7.3-7.5,14.6-14.9,21.8-22.4c2.8-3,5.5-6.1,6.9-10.1
	c0.9-2.4,1.1-5.1,0.1-7.3c-2.2-4.9-6.4-6.5-11.4-4.6c-3.6,1.4-6.6,3.7-9.5,6.1c-9.4,7.7-18.1,16.1-26.6,24.8
	c-13.7,13.8-26.9,28.1-39.2,43.2c-6.4,7.9-12.9,15.8-19.2,23.8c-5.7,7.3-11.3,14.6-16.7,22.1c-6.1,8.5-12.1,17.1-18,25.8
	c-5.7,8.5-11.2,17-16.6,25.7c-2.1,3.3-3.7,7-3.4,11.2c0.2,3.5,1.8,6,4.7,7.8c3.7,2.1,10,1.3,13.2-1.7c2.7-2.6,4.4-5.9,6.5-9
	c5.5-8.6,11.1-17,16.9-25.4c4.5-6.5,9.2-12.8,14-19.1c4.5-5.9,9.1-11.8,13.7-17.6C116.7,252.9,117.3,252.6,118,251.9L118,251.9z"/>
<path class="st1" d="M92.6,801.1c-1.1-0.5-2.2-0.9-3.2-1.4c-2.9-1.4-4.4-4.1-5.8-6.7c-2.6-5.2-5-10.6-7.2-16
	c-2.4-5.8-4.6-11.6-6.7-17.4c-2.1-5.8-4.1-11.7-6-17.6c-0.9-2.6-1.5-5.3-2.3-8c-0.8-2.7-1.8-5.4-2.5-8.1c-1.2-4.1-2.2-8.3-3.3-12.4
	c-0.8-3.2-1.7-6.5-2.5-9.7c-0.6-2.2-1-4.5-1.6-6.7c-0.5-2-1.1-4-1.5-6s-1-4-1.3-6c-0.2-1.5-0.9-2.4-2.2-3.1
	c-3.4-1.7-6.7-3.5-9.5-6.1c-3.7-3.3-5-7.5-4.1-12.3c0.6-3.3,2.7-5.8,5.6-7.5c1.3-0.8,2.7-1.5,4.1-2.2c-5.5-26.6-11.1-52.9-20.2-78.5
	c-1.5,1.2-1.7,3-2.5,4.5c-0.8,1.7-1.4,3.3-2.2,5c-2.2,5.2-7.9,5.1-11.4,2.5c-2.7-2-4.2-4.7-4.9-8.1c-0.9-4.2,0-8,1-12
	c1.8-7.1,4.7-13.8,7.9-20.3c0.6-1.2,0.6-2.2,0-3.4c-1.4-2.8-2.6-5.6-3.9-8.4c-2.4-5.2,0.3-10.1,4.1-13c3.2-2.3,6.9-3.3,10.8-3
	c1.8,0.2,2.9-0.4,3.9-2c4.2-6.9,9-13.3,14.4-19.4c6.1-6.8,12.8-12.9,20.9-17.4c3.7-2,7.4-3.8,11.6-4.6c3.1-0.6,6.3-1.4,9.4-1.4
	c3.6,0,7.3,0.7,10.9,1.2c3.7,0.5,7.1,2.1,10.4,3.8c5.4,2.9,9.9,6.9,13.8,11.5c4.8,5.7,8.5,12.1,11.2,19.1c1.6,4.2,2.7,8.6,3.7,13
	c0.7,2.9,1.1,6,1.1,9c0.2,6.2,0.2,12.5,0,18.7c-0.2,3.7-1,7.4-1.6,11.1c-0.3,1.8-0.6,3.6-1.1,5.4c-1.4,5.2-2.6,10.5-4.4,15.6
	c-3.4,9.4-7.6,18.5-12.5,27.3c-4.1,7.4-8.7,14.5-13.6,21.3c-6.2,8.5-13.3,16.3-21,23.5c-2.5,2.4-5.2,4.6-7.8,6.9
	c-0.6,0.5-1.1,1.1-2,1.9c4,1.8,7.6,3.7,11.4,5.3c4,1.7,8.1,3.2,12.2,4.6c3.6,1.2,7.3,2.3,10.9,3.4c3.9,1.2,7.8,2.5,11.7,3.8
	c2.6,0.8,5.2,1.5,7.7,2.2c3.6,1.1,7.1,2.2,10.6,3.3c2.8,0.9,5.6,1.8,8.4,2.7c2.8,0.9,5.6,1.8,8.4,2.7c1.4,0.4,2.7,0.8,4.1,1.1
	c3.5,0.8,7,1.4,10.5,2.2c2.2,0.5,4.5,1.1,6.7,1.6c2.3,0.5,4.5,0.8,6.8,1.3c2.9,0.6,5.9,1.3,8.8,2.1c1,0.3,1.9,0.8,2.7,1.4
	c2.1,1.5,3.2,3.5,3.3,6.2c0,3.5-0.8,6.6-2.5,9.5c-1.2,2.1-3,3.4-5.6,3.9c-3.8,0.7-7.4,0-11.1-0.9c-1.5-0.4-2.9-0.7-4.4-1
	c-3.6-0.8-7.1-1.4-10.7-2.2s-7.1-1.7-10.6-2.6c-4.2-1.1-8.5-2.1-12.7-3.3c-3-0.8-5.9-1.8-8.9-2.7c-3.7-1.1-7.4-2.2-11.1-3.4
	c-2.3-0.7-4.5-1.4-6.8-2.2c-3.6-1.2-7.2-2.5-10.8-3.8c-4.4-1.6-8.8-3.2-13.1-4.8c-2.9-1-5.8-2.1-8.7-3.1c-0.6-0.2-1.4-0.2-2.3-0.3
	c0.1,0.9-0.1,1.6,0.1,2.2c1.9,6.3,3.8,12.6,5.7,18.9c1.1,3.7,2.1,7.5,3.3,11.2c1.1,3.5,2.3,6.9,3.5,10.3c1.1,3.2,2.1,6.5,3.3,9.6
	c1.9,5,3.8,10.1,5.9,15.1c3.3,7.8,6.8,15.5,10,23.3c0.9,2.1,1.6,4.4,1.8,6.6c0.2,1.5-0.5,3.1-1.2,4.5c-1.5,3-4.1,5.2-6.8,7.1
	c-0.8,0.6-2.2,0-2.6,1.3H92.6L92.6,801.1z M61.6,640.8c1.1-0.8,1.8-1.3,2.4-1.9c6.7-6.1,13.2-12.4,18.8-19.5
	c6.1-7.8,11.3-16.1,15.5-25.1c3.3-7.1,5.9-14.5,8-22.1c0.5-1.9,0.8-3.9,1.2-5.8s0.8-3.9,1.2-5.8c0.6-3.4,1.5-6.9,1.6-10.3
	c0.3-8,0.8-15.9-0.7-23.9c-0.8-4.2-1.4-8.4-3-12.4c-2.5-6.5-6.5-11.7-12.2-15.5c-3.6-2.4-7.7-3.6-12-3c-4.2,0.6-8.1,2.1-11.7,4.4
	c-11.3,7.1-19.7,16.9-26.1,28.4c-2.7,4.8-4.7,10-7.3,14.9c-1.3,2.3-1.2,4.4-0.4,6.7c1.3,3.7,2.5,7.5,3.7,11.2
	c0.9,2.9,1.8,5.8,2.7,8.7c0.8,2.7,1.6,5.5,2.4,8.2c0.8,2.9,1.4,5.8,2.2,8.7c0.8,3,1.8,5.9,2.6,8.9c1,3.4,1.8,6.9,2.7,10.3
	c0.9,3.5,1.8,7,2.6,10.4c0.7,3,1.5,6,2.2,9c0.6,2.4,1.1,4.8,1.7,7.2C60.1,635.1,60.8,637.7,61.6,640.8L61.6,640.8z"/>
<path class="st1" d="M740.2,157.9c-0.2,0.7-0.6,1.4-0.6,2c-0.2,3.9-1.1,7.6-2.3,11.2c-2.4,7.3-6,13.9-12.7,18.3
	c-3.3,2.1-6.9,3.4-10.9,3.7c-8,0.7-14.4-2.3-20-7.6c-6.1-5.7-10.9-12.3-15.3-19.3c-4.3-7-7.7-14.5-10.8-22.1
	c-1.7-4-2.9-8.2-4.3-12.3c-1.2-3.7-2.5-7.5-3.6-11.2c-1.2-3.9-2.2-7.8-3.3-11.7c-0.8-2.7-1.5-5.4-2.3-8c-0.2-0.6-0.6-1.1-1.1-1.9
	c-0.6,0.8-1.1,1.4-1.6,2.1c-2.8,3.9-6.4,6.5-11,7.7c-3.8,1-7.8-0.4-9.5-3.7c-1.2-2.5-1.1-5.2,0-7.7c1.1-2.2,2.7-4.3,4.2-6.3
	c4.2-5.4,8.4-10.7,12.1-16.4c1.7-2.7,1.5-5.4,0.8-8.2c-0.1-0.5-0.4-1-0.5-1.6c-0.8-5.3-1.5-10.6-2.2-15.9c-1-7.5-2-15-2.7-22.6
	c-0.5-5.6-0.3-11.3-0.3-17c0-2,0.8-3.9,2-5.5c1.2-1.5,2.7-2.4,4.6-2.7c0.8-0.1,1.6-0.2,2.4-0.2c4.8-0.1,6.5,1,8.2,5.6
	c0.8,2.4,1.4,4.9,1.9,7.3c0.7,3.2,1.1,6.4,1.7,9.6c0,0.3,0.1,0.6,0.1,1c0.4,4.2,0.7,8.4,1.2,12.6c0.2,1.3,0.6,2.6,1,4.1
	c1-0.3,1.3-1.2,1.8-1.8c4.5-6.8,9.1-13.5,14.4-19.7c2.5-2.9,5.2-5.6,8.8-7.1c3.3-1.3,6.4-0.9,9.2,1.4c2.8,2.3,3.6,5.3,2.6,8.5
	c-0.6,2-2,3.8-3.4,5.4c-7.4,7.9-12.7,17.3-18.4,26.4c-3.2,5.1-6.1,10.5-9.3,15.6c-0.7,1.1-1,2.2-0.8,3.3c0.6,3.3,1.3,6.5,1.9,9.8
	c0.3,1.6,0.7,3.1,1,4.7c0.7,3.3,1.4,6.7,2.3,9.9c1,3.8,2.1,7.5,3.3,11.2c1.1,3.6,2.3,7.1,3.6,10.6c1.6,4.4,3.3,8.7,4.8,13.1
	c2,5.7,4.6,11.1,7.3,16.5c3,6.1,6.6,11.9,11.3,16.8c2.2,2.2,4.7,4,8,3.4c1.3-0.2,2.7-0.7,3.7-1.5c3.4-2.6,5-6.3,5.9-10.4
	c1.7-7.1,1-14.3,0.8-21.5c-0.2-4.4-1-8.8-1.6-13.3c-0.4-3.1-0.7-6.2-1.3-9.2c-0.5-2.7-1.1-5.4-1-8.3c0.1-3.5,1.6-5.9,4.7-7.3
	c3.8-1.7,6.8-0.5,8.4,2.5c1.5,2.9,2.4,6,3,9.2c0.5,2.7,1,5.3,1.6,7.9c0,0.2,0.1,0.5,0.1,0.7c0.4,4.2,0.8,8.4,1.3,12.6
	c0.2,1.6,0.5,3.1,0.8,4.7L740.2,157.9L740.2,157.9z"/>
<path class="st1" d="M641.1,180.6c-1.4,0.6-1.5,1.5-1.6,2.4c-0.6,4.2-1.3,8.3-1.8,12.5c-0.3,2.2-0.2,4.5-0.2,6.7
	c0,3.2-0.2,6.4,0.1,9.6c0.4,4.8,1.1,9.6,1.6,14.5c0.4,3,0.7,6,1.2,9c0.4,2.4,1,4.8,1.6,7.2c0.4,1.7,0.8,3.4,1.2,5.1
	c0.6,2.8,1.4,5.6,1.9,8.4c0.8,4.1,0.6,8.1-1.6,11.8c-2.5,4.2-6.7,5.7-11.3,4.5c-3.9-1-5.9-3.9-7.5-7c-2.6-5-4.7-10.2-6.4-15.6
	c-0.6-1.9-1.4-3.8-2.6-5.6c-0.1,0.7-0.2,1.3-0.2,2c-0.4,4.5-0.6,9.1-1.2,13.6c-0.5,3.6-1,7.2-2,10.8c-1.4,5.4-3.1,10.6-4.7,16
	c-1.7,5.7-4.1,11.1-7.1,16.2c-4.4,7.7-9.8,14.6-17.2,19.7c-7,4.8-14.7,6.8-23.1,5.6c-4.4-0.6-8.4-2.8-11.9-5.6
	c-2.2-1.8-4.2-3.8-6.5-5.8c-0.1,0.6-0.3,1.1-0.3,1.6c0,1.6,0,3.2-0.1,4.8c-0.3,5.5-0.6,11-1.1,16.5c-0.4,4.4-1,8.7-1.9,13
	c-1.1,5.5-2.5,11-3.8,16.5c-0.7,3-1.5,6-2.2,9c-0.4,1.5-0.8,3.1-1.4,4.5c-0.8,1.9-0.7,3.6,0,5.5c0.9,2.4,1.6,4.8,2.3,7.2
	c0.9,2.9,1.7,5.8,2.5,8.7c1.3,4.4,2.5,8.9,3.8,13.3c1.2,4.2,2.5,8.3,3.6,12.5c0.9,3.3,1.5,6.6,2.2,10c0.8,3.4,1.7,6.8,2.2,10.3
	c0.8,4.6,1.2,9.2,1.9,13.8c1,6.4,1.1,12.8,0.8,19.1c-0.5,8.7-2,17.3-6.1,25.1c-3.3,6.4-8.1,11.5-14.7,14.7
	c-3.3,1.6-6.9,2.6-10.6,2.2c-6.4-0.8-11.9-3.6-16.3-8.4c-3.9-4.2-7-8.9-9-14.1c-1.7-4.5-2.8-9.2-3.5-14c-0.7-5.4-1-10.7-0.6-16
	c0.3-4.3,1-8.5,1.6-12.8c0.4-2.7,0.7-5.4,1.3-8c0.7-3.2,1.7-6.4,2.6-9.6c0.7-2.6,1.5-5.2,2.3-7.7c1.1-3.5,2.4-6.9,3.5-10.4
	c0.8-2.5,1.6-5,2.5-7.4c1.2-3.3,2.4-6.7,3.5-10c1.1-3.2,2.2-6.4,3.4-9.6c0.5-1.6,1.2-3.1,1.6-4.7c0.3-1.1,0.5-2.4,0.2-3.5
	c-1-3.6-2.4-7.1-3.5-10.6c-1.2-3.6-2.2-7.2-3.4-10.9c0-0.1-0.2-0.2-0.6-0.5c-0.3,1-0.8,1.9-0.9,2.9c-0.2,1.5-0.1,3-0.3,4.5
	c-1,7.9-2.7,15.6-7,22.6c-2.3,3.7-5.2,6.6-9.3,8.1c-2.9,1-5.9,1.8-9.1,0.8c-2.2-0.6-4.4-1-6.5-2c-4.3-2-7.6-5.1-10.3-8.9
	c-4.5-6.1-7.5-13-9.8-20.1c-1.1-3.4-2.2-6.7-3.4-10.5c-0.5,1.3-1.1,2.4-1.4,3.5c-2.8,10-7.6,18.9-15.2,26c-3.5,3.3-7.7,5.4-12.3,6.4
	c-3.2,0.7-6.1-0.4-8.7-2.5c-2.5-2-4.2-4.6-5.3-8c-1,1.9-1.2,3.6-1.4,5.2c-1.6,14-1.8,28.1-0.5,42.1c0.4,4.2,0.8,8.4,1.5,12.6
	c0.4,2.8,1.2,5.5,1.7,8.2c0.4,2.2,0.8,4.4,1.2,6.6c0.4,2,1,4,1.5,6c0.4,1.5,0.8,3.1,1.2,4.6c0.9,3.4,2,6.8,2.8,10.3
	c1.2,5.5,0.5,10.5-4.3,14.4c-4.2,3.5-8.8,5.9-14.2,6.7c-2.4,0.3-4.8,0.8-7.1,0.8c-6.9-0.1-13-2.6-18.7-6.3c-2-1.3-3.8-2.8-5.7-4.2
	c-0.4-0.3-0.9-0.6-1.6-1c-0.1,0.9-0.2,1.4-0.2,2c0.3,4.1,0.7,8.3,0.8,12.4c0.1,3.7-0.2,7.3-0.3,11c0,1-0.2,1.9-0.3,2.9
	c-0.9,7.9-3.7,14.9-10,20.1c-3.3,2.7-7.1,4.3-11.5,4.5c-7.7,0.3-13.9-2.6-19.2-7.9c-5.7-5.6-9.9-12.3-13.3-19.5
	c-2.1-4.6-3.9-9.3-5.3-14.2c-1-3.7-2.2-7.4-2.8-11.3c-0.8-4.5-1.7-8.9-2.5-13.4c-0.3-2-0.4-4-1-6c-0.1,0.2-0.2,0.4-0.2,0.7
	c-0.3,4.2-1,8.3-2.3,12.2c-3.2,9.9-7.6,19.2-14.9,26.9c-1.5,1.6-3.3,3-5.4,3.8c-1.6,0.6-3.1,0.6-4.6,0c-6-2.4-6.4-9.2-3.3-13.5
	c2.8-4,5.5-7.9,8.1-12c1.6-2.5,2.6-5.3,3.5-8.2c0.8-2.7,0.8-5.3,0.8-8c0.1-3.4-1.7-5.8-4.4-7.4c-1.9-1.2-4.2-1-6.2,0.1
	c-3.8,2.1-6.5,5.3-8.9,8.8c-3.1,4.5-5.1,9.4-6.8,14.5c-1.9,5.8-3.1,11.7-2.8,17.8c0.4,7.9,4.1,13.8,11.1,17.5
	c4.7,2.6,9.8,4.1,15.1,5c3.8,0.6,7.7,1.1,11.5,2c6.6,1.5,13.3,3,19.1,6.8c5.4,3.6,9.2,8.4,11.3,14.7c1.7,5.1,1.6,10.3,0.6,15.4
	c-1.6,8.4-5.6,15.7-11.7,21.8c-4.2,4.2-8.8,8-14.2,10.6c-2.5,1.2-5.1,2-7.8,2.8c-3.5,1-7,0.9-10.4,0.8c-6.9-0.2-13.1-2.6-18.8-6.6
	c-1.3-0.9-2.5-1.9-3.8-2.9c-1.1-0.8-1.7-0.6-1.9,0.7c-0.4,2.8-0.7,5.7-1.2,8.5c-0.9,4.3-1.9,8.5-2.9,12.8c-0.7,2.8-1.3,5.7-2.3,8.5
	c-1.3,3.6-2.7,7.2-4.2,10.8c-3,6.8-6.8,13-11.7,18.6c-4.5,5.1-9.8,9.3-16.3,11.9c-5.4,2.2-10.9,2.4-16.4,1.6
	c-5.1-0.8-9.4-3.5-13.2-7c-6.4-5.9-11.7-12.7-15-20.8c-1.8-4.2-3.4-8.6-4.8-12.9c-0.7-2.1-0.9-4.4-1.2-6.6c-0.6-3.5-1.5-7-1.6-10.6
	c-0.2-7.6,0-15.2,0.1-22.8c0-1.5,0.5-3,0.5-4.5c0.2-4.1,1.1-8,1.8-12c0.7-4.2,1.9-8.2,3.3-12.2c2.4-6.7,5.7-12.8,10.9-17.8
	c3.4-3.3,7.6-5.1,12.2-5.2c3.3-0.1,6.4,0.8,9,3.2c3.1,2.8,5.2,6.3,7,10.1c1.8,3.8,2.7,7.9,3.7,12c0.7,2.9,1,6,1.2,9
	c0.4,4.2,0.8,8.4,0.7,12.7c0,3.9-0.4,7.8-1,11.7c-0.7,4.4-1.6,8.8-2.9,13c-2,6.6-4.3,13.1-7.6,19.2c-2,3.8-4,7.7-6.1,11.8
	c0.8,1.8,2.7,2.8,4.4,4c2,1.4,4.4,1.4,6.7,1.4c4.1,0,7.7-1.6,10.9-4c6.5-4.8,10.9-11.1,13.9-18.6c1.4-3.4,2.7-6.7,3.6-10.2
	c1-4,1.7-8.1,2.2-12.2c0.6-4.3,1.1-8.7,1.3-13.1c0.3-4.9,0.3-9.9,0.5-14.9c0.1-3.3-0.2-6.6,1.1-9.7c1-2.5,2.5-4.5,5.6-4.8
	c1-0.1,1.9-0.7,2.8-1.1c2.3-1.1,4-0.7,5.4,1.3c0.6,0.9,1.1,2,1.4,3c2.2,8.5,6.8,15.4,14,20.5c1.9,1.3,4.1,2.3,6.6,2.5
	c1.7,0.1,3.3,0.8,4.9,0.7c8.6-0.5,15.6-3.9,19.9-11.7c2.2-4,2.1-8.1-0.1-12.1c-2.2-4-5.7-6.4-10-8c-4.8-1.7-9.6-2.6-14.6-3.3
	c-4.5-0.6-8.9-1.7-13.3-2.7c-4.7-1-9-2.7-13.2-5.1c-6.3-3.6-11.1-8.6-14-15.3c-1.2-3-2-6.1-2.3-9.4c-0.4-4.6-0.2-9.1,0.2-13.6
	c0.2-2.6,1-5.1,1.6-7.7c0.6-2.4,1.3-4.7,2-7.1c1.7-5.7,4.3-11.1,7.3-16.2c5.2-8.9,11.8-16.6,19.9-23c3.8-3,7.9-5.3,12.6-6.5
	c4.2-1,8.1,0,11.6,2.3c4,2.6,6.8,6.4,8.7,10.7c1.1,2.5,1.8,5.2,2.9,8.2c0.2-1.5,0.3-2.6,0.4-3.7c0.7-5.1,1.1-10.3,2.1-15.4
	c0.5-2.8,1.8-5.5,3.7-7.8c2.2-2.7,6.8-4.2,10.6-2.4c2.1,1,2.9,3.2,3.4,5.4c1.1,4.7,0.8,9.5,1.1,14.3c0.4,6.4,1,12.7,1.7,19.1
	c0.3,3.2,0.8,6.5,1.4,9.7c0.8,3.6,1.7,7.3,2.7,10.9c1,3.3,2,6.7,3.2,9.9c1.9,5.2,4.3,10.2,8,14.5c0.4,0.5,0.9,0.9,1.4,1.3
	c2.9,2.3,4.6,2.2,7.3-0.9c2.3-2.7,3.1-6.1,3.3-9.5c0.4-6.5,0.5-13.1-0.7-19.6c-0.9-5.1-1.5-10.2-2.5-15.3c-0.6-3.2-1.6-6.3-2.6-9.4
	c-1.3-4.3-2.7-8.6-4.1-12.8c-1-2.8-2.1-5.5-3.2-8.2c-1.3-3.1-2.2-6.3-3-9.5c-1.1-4.4-1.3-8.9-0.8-13.3c0.5-3.7,2.1-6.9,5.7-8.6
	c4.7-2.2,10.4-1.2,13.2,4.3c1.7,3.3,3.2,6.7,4.2,10.3c1.1,4,2.5,8,3.7,12.1c0.9,3.1,1.5,6.2,2.4,9.3c2.2,7.6,4.7,15.1,9.9,21.3
	c4,4.8,9,8.1,14.9,10c2.3,0.7,4.5,0.9,7.2,1.2c-0.1-1,0-1.8-0.3-2.4c-2.7-6.5-5.6-13-8.2-19.6c-2.3-5.7-4.4-11.4-6.4-17.1
	c-1.4-4-2.7-8.1-3.8-12.2c-1.2-4.4-2.3-8.8-3.3-13.2c-1-4.3-1.9-8.6-2.8-12.8c0-0.2-0.1-0.3-0.1-0.5c-1.2-9.1-2.1-18.3-1-27.5
	c0.4-3.1,1.5-6.2,3.4-8.8c1.9-2.5,4.6-3.7,7.5-4c2.2-0.2,5.2,0.9,6.1,4c0.8,2.9,1.3,5.9,1.8,8.9c0.2,1,0,2.1,0.1,3.1
	c0.4,5.8,0.5,11.7,1.2,17.4c0.6,4.7,1.2,9.4,3.3,14.4c0.2-1,0.3-1.6,0.4-2.1c0.4-5.8,0.6-11.6,1.2-17.5c0.7-6.3,1.7-12.6,2.6-19
	c0.7-5,1.5-10.1,2.4-15.1c0.4-2.4,1.1-4.8,1.6-7.2c0.4-1.5,0.8-3.1,1.1-4.6c1.2-5.8,3-11.5,5.1-17c1.1-3,3.4-4.7,6.7-4.7
	c2.1,0,4.1,0.1,6.1,0.9c1.8,0.8,3,2,3.3,4c0.4,4,0.1,8-0.6,11.9c-1.4,7.6-2.2,15.2-1.3,22.9c0.2,1.7,0.9,3.4,1.9,4.8
	c1.6,2.5,3.7,2.7,5.8,0.8c1.6-1.4,3-3,4.1-4.8c2.7-4.5,4.7-9.3,6.2-14.3c1.3-4.5,2.5-9,4-13.4c0.8-2.3,1.6-4.8,4.3-6
	c0.5-0.2,0.8-1.3,0.8-2c0.1-2.6-0.1-5.3-0.1-7.9c0-3.4-0.1-6.7,0.2-10.1c0.3-4,1-7.9,1.6-11.8c0.4-2.4,0.7-4.7,1.2-7
	c0.6-2.6,1.2-5.3,2.1-7.8c1.1-3.3,2.4-6.5,4-9.6c2.8-5.8,6.5-11,11.9-14.8c4.4-3,9.2-4.2,14.4-3.5c2.1,0.3,4,1.3,5.8,2.6
	c4.5,3.2,7.4,7.6,9.7,12.4c1.2,2.5,2.1,5.1,3.1,7.7c0.4,0.9,0.9,1.4,1.9,1.5c1.6,0.2,3.2,0.4,4.7,0.7c1.9,0.3,3,1.4,3.2,3.3
	c0.4,2.9,0.7,5.9,1.1,8.8c0.4,2.7,1,5.3,1.5,8c0.4,2,0.8,3.9,1.1,5.9c0.8,4,1.5,8,2.3,12c0.8,3.7,1.8,7.4,2.7,11.1
	c0.8,3,1.4,6,2.3,9c0.8,2.7,1.7,5.4,2.5,8.1c0.5,1.6,1,3.1,2,4.7c0.4-1.6,1-3.2,1.2-4.9c0.8-4.1,1.6-8.2,2-12.3
	c0.6-5.7,1.6-11.4,1.2-17.2c-0.4-7.7-0.7-15.5-1.3-23.2c-0.4-4.6-1.1-9.2-2-13.7c-0.5-2.4-1.1-4.7-0.9-7.1c0.1-0.9,0.3-1.9,0.7-2.7
	c0.6-1.3,0.8-2.5,0.7-3.9c-0.5-8.2-0.7-16.5,0.3-24.7c0.5-4,0.8-8.1,1.5-12.1c0.7-3.6,1.8-7.2,2.7-10.8c1-4.3,2.8-8.4,5-12.2
	c2.1-3.8,4.7-7.3,8.1-10.1c4.7-3.8,10-5.4,16-3.5c3.3,1.1,5.7,3.4,7.5,6.2c3.3,4.8,5.3,10.1,6.5,15.7c0.6,2.7,1.5,5.4,1.8,8.2
	c0.7,6.4,1.6,12.7,0.8,19.1c-0.5,4.2-0.9,8.4-1.6,12.6c-0.6,3.5-1.7,7-2.7,10.4c-0.9,3.1-2.1,6.1-3.2,9.2
	c-2.2,6.1-5.3,11.9-8.4,17.5c-0.5,0.9-1,1.7-1.7,2.7c2.1,2.6,4.4,4.8,7.9,5.3c5.3,0.9,10-0.6,14.3-3.8c5.1-3.8,8.8-8.5,11.8-14
	c2.9-5.4,5-11.1,6.2-17.1c0.8-3.7,1.2-7.4,2-11c1-4.3,0.8-8.6,1.1-12.9c0.3-6.5,0.4-13.1,0.8-19.6c0.1-1.7,0.5-3.5,1.3-5
	c1-2,2.6-3.6,5.2-3.6c0.3,0,0.6-0.2,1.1-0.3c-0.3-1.2-0.5-2.3-0.8-3.4c-0.5-2.2-1.1-4.3-1.7-6.5c-0.5-1.8-0.9-3.7-1.3-5.6
	c-0.5-2.3-1.1-4.6-1.7-6.9c-0.4-1.7-0.8-3.4-1.1-5.1c-0.5-2.5-0.8-5-1.2-7.5c-0.5-3.1-1-6.1-1.5-9.2c-0.3-2.5-0.5-4.9,0.2-7.4
	c0.4-1.4,0.8-2.9,1.2-4.3c0.8-2.8,3.3-4,5.7-4.5c5.3-1,9.5,1.1,11.3,6.6c1.2,3.6,1.7,7.3,2.1,11c0.4,3.2,1.1,6.3,1.7,9.4
	c0.4,2.2,0.9,4.5,1.4,6.7l0.6,0c0.1-0.7,0.2-1.5,0.2-2.2c0.4-5.2,0.7-10.4,1.2-15.5c0.5-5,1.1-10,1.9-14.9c0.7-4.4,1.6-8.7,2.7-13.1
	c0.9-4,1.9-8,3.3-11.9c1.5-4.3,3.2-8.4,6.8-11.5c1.4-1.2,2.9-2,4.5-2.5c2-0.6,3.9,0.2,5.6,1.3c3.7,2.4,5.4,5.9,5.9,10.1
	c0.5,4.6,0.7,9.2,1,13.9c0.5,6.1,0.7,12.1,1.5,18.2c0.6,4.6,1.7,9.2,2.6,13.8c0.7,3.2,1.3,6.4,2.2,9.5c1.1,3.6,2.4,7.2,4,10.6
	c2.9,6.5,6.6,12.6,11.3,18c4.1,4.6,9.2,8.1,15,10.2c2.7,1,5.7,1.5,8.5,2.2c2.1,0.6,4.1,1.2,5.4,3.1c0.2,0.3,0.5,0.7,0.6,1
	c0.5,3.7,0.5,7.3-2.7,10.1c-4.2,3.8-9.1,5-14.6,4.2c-5.5-0.8-10.6-2.6-15.3-5.5c-6-3.6-10.9-8.5-15.3-13.9
	c-4.4-5.5-7.9-11.6-10.6-18.1c-1.7-4.1-3.1-8.3-4.5-12.5c-1-3.2-1.9-6.4-2.8-9.6C641.4,183,641.3,181.9,641.1,180.6L641.1,180.6z
	 M489.2,329.6c-0.3-0.1-0.4-0.3-0.6-0.3c-0.6-0.1-1.3-0.1-1.9-0.2c-2.1-0.3-2.9-1-3.6-3.1c-0.4-1.3-0.5-2.5-0.2-3.8
	c0.2-0.8,0.2-1.6,0.3-2.4c0.5-9.5-0.4-18.8-2.9-27.9c-0.6-2.2-1.6-4.3-3.1-6c-2.1-2.4-5.1-2.4-7-0.1c-0.2,0.3-0.5,0.6-0.8,0.9
	c-3,3.4-4.1,7.7-4.8,12c-1,5.6-1.5,11.2-1.9,16.9c-0.6,8.5,0.2,16.9,1.4,25.3c0.4,2.8,0.9,5.7,1.4,8.5c0.3,1.6,0.6,3.3,1.1,4.9
	c1.2,3.8,2.4,7.5,3.6,11.3c1.4,4.1,3.1,8,5.5,11.5c1.2,1.9,2.8,3.5,4.7,4.6c1.4,0.8,2.8,0.8,4.1,0.2c1.5-0.7,2.7-1.8,3.6-3.3
	c1.9-3,2.7-6.5,3-9.9c0.4-4.4,0.4-8.8,0.4-13.2c0-5.9-0.1-11.8-1.2-17.7C490.1,334.9,489.7,332.2,489.2,329.6L489.2,329.6z
	 M520.2,417.3c-0.2,0-0.4,0-0.6,0c-0.4,0.9-0.9,1.8-1.3,2.8c-2.1,4.8-3.9,9.7-5.1,14.8c-1.3,5.4-2.9,10.8-3.6,16.3
	c-0.9,6.2-1.3,12.4-1.3,18.6c0,7.2,0.8,14.1,3.2,20.9c1,2.8,2.1,5.5,3.9,7.9c1.7,2.3,4,3.5,6.7,3.3c2.1-0.1,4-1.4,5.4-3.1
	c3.2-3.7,4.2-8.3,4.7-13c0.8-6.7-0.2-13.4-1-20c-0.3-2.1-0.7-4.2-1.2-6.3c-0.5-2.4-1.1-4.8-1.5-7.2c-0.5-2.3-0.8-4.7-1.3-7
	c-0.8-3.7-1.8-7.4-2.7-11.1C523.1,428.4,521.7,422.9,520.2,417.3L520.2,417.3z M558.3,244c0.3-5.3,0.1-10.6-1.1-15.7
	c-0.4-1.9-1-3.9-2.2-5.5c-2.4-3.4-3.9-3.4-6.5-0.4c-1.6,1.8-2.5,4-3.2,6.3c-0.4,1.7-0.8,3.4-1.2,5.1c-0.6,3.1-1.5,6.2-1.6,9.4
	c-0.5,8.1-0.1,16.1,1.6,24c1,4.4,2,8.6,3.3,12.9c0.1,0.5,0.6,0.8,0.9,1.2c0.4-0.3,0.9-0.6,1.1-1c1.9-3.7,3.6-7.5,5.1-11.4
	c2.1-5.2,2.9-10.7,3.6-16.2C558.6,249.8,558.3,246.9,558.3,244L558.3,244z M182.9,626.6c3.3-6.6,6.4-12.7,7.8-19.7
	c0.8-3.9,1.7-7.8,1.8-11.8c0.2-7.1,0.4-14.2-1.1-21.2c-0.6-2.5-1.2-5.1-3-7.1c-1.9-2.1-3.1-2.2-5.1-0.1c-0.8,0.8-1.4,1.7-1.9,2.6
	c-1.6,2.8-2.5,5.8-3,8.9c-0.5,3.3-1.4,6.6-1.6,9.9c-0.3,4.7-0.2,9.4,0,14.1c0.1,2.9,0.7,5.9,1.2,8.8c0.4,2.5,1.1,5,1.7,7.4
	c0.6,2.5,1.3,4.9,2.1,7.3C181.7,626,182.3,626.2,182.9,626.6L182.9,626.6z"/>
<path class="st1" d="M394.6,193.6c-0.4,1.3-0.9,2.6-1,3.9c-1.2,11.1-1.4,22.2-0.9,33.3c0.2,4.6,0.5,9.1,1,13.6
	c0.5,4.3,1.1,8.5,2,12.7c0.7,3.6,1.7,7.2,2.6,10.9c0.6,2.7,1.4,5.4,1.8,8.1c0.6,4.6-0.6,8.7-4.5,11.6c-2.8,2.1-6,2-9-0.3
	c-2.3-1.8-3.7-4.2-5.1-6.7c-2.9-5.1-5.2-10.5-7.1-16c-1.5-4.2-3.2-8.2-4.6-12.4c-1.6-5.1-3-10.2-4.4-15.4c-0.8-2.7-1.5-5.5-2.4-8.7
	c-0.3,0.8-0.4,1.3-0.6,1.7c-1.1,3.9-0.7,7.9-1.2,11.9c-0.7,4.4-0.6,8.8-0.5,13.1c0.1,4,0.4,8,0.9,11.9c0.5,4.1,1,8.2,2,12.2
	c1.5,6.6,3.1,13.1,5.5,19.5c1.4,3.7,3,7.3,4.1,11.1c0.6,2.1,1.6,4.1,1.5,6.5c-0.1,3.1-1.2,5.7-3.4,7.8c-3,3-6.5,5.2-10.7,6.4
	c-3.9,1.1-7.8,1.3-11.8,1.1c-8-0.5-14.1-4.3-19.4-9.8c-1.5-1.5-3-2.9-4.7-4.6c-0.5,1.5-0.2,2.8,0.1,4.1c0.1,0.6,0.4,1.2,0.5,1.8
	c1.2,7,1.4,14.1,1.1,21.2c-0.2,5-1.5,9.8-3.9,14.3c-2.8,5.4-7,9.2-12.6,11.3c-3.9,1.5-8,1.7-12.2,0.7c-5.6-1.2-10.3-4-14.4-7.8
	c-0.2-0.2-0.4-0.3-0.6-0.4c-1.2,0.2-1.2,1.2-1.3,2c-0.5,4.6-1.8,9-2.9,13.5c-1.7,7-4.1,13.8-7.2,20.3c-4,8.4-9,16.1-16.1,22.3
	c-3.7,3.2-7.9,5.9-12.6,7.5c-4.9,1.7-10.1,1.9-15.1,1c-4.1-0.7-7.8-2.6-11-5.2c-8.2-6.6-14.1-14.9-18.2-24.5
	c-1.8-4.2-3.1-8.6-4.2-13.1c-0.9-4-1.4-8-2-12c-1.2-7.7-0.8-15.3-0.6-23c0.1-4.6,1-9.2,1.6-13.8c0.3-2.6,0.7-5.2,1.2-7.8
	c0.7-3,1.5-6,2.6-8.9c1.3-3.5,2.8-7.1,4.6-10.4c2.3-4.1,5.2-7.9,9.2-10.7c2.9-2,6.1-3.1,9.6-3.2c4.2-0.1,7.9,1.5,10.7,4.7
	c3,3.4,5.1,7.2,6.5,11.5c0.9,3,1.9,6,2.6,9.1c0.6,2.9,1,5.8,1.2,8.7c0.4,4,0.8,8.1,0.8,12.2c-0.1,4.8-0.5,9.5-1.6,14.2
	c-0.5,2.2-0.7,4.6-1.2,6.8c-0.6,2.6-1.2,5.3-2.1,7.8c-1.8,4.7-3.6,9.3-5.7,13.8c-2.1,4.6-4.5,9-6.9,13.8c1.9,2.4,4.3,4.6,7.9,5.1
	c7.8,1.2,13.6-2.5,18.6-7.6c4.7-4.8,8.1-10.5,10.3-16.9c1.4-4,2.7-8.1,3.8-12.2c0.7-2.6,1-5.3,1.2-8c0.6-5,0.9-10,1.6-15
	c0.3-2.2-0.1-4.2-1-6.2c-1.9-4.1-3.5-8.3-4.7-12.6c-1.3-4.5-2.6-9-3.8-13.6c-0.6-2.5-0.9-5-1.2-7.5c-0.6-4.3-1.2-8.7-1.6-13
	c-0.4-4.9-0.7-9.9,0.3-14.8c0.1-0.7,0.2-1.4,0.2-2.1c0.4-7,1.9-13.7,4-20.3c2.1-6.5,5.3-12.3,9.6-17.5c3.8-4.5,8.4-8.1,14.1-9.3
	c5.2-1.1,10.5-1.1,14.8,3.1c2.1,2,3.2,4.6,4.5,7.2c0.5,1.1,0.9,2.2,1.3,3.1c1.3,0.4,2.5,0.8,3.6,1.1c3.3,0.9,5,3.3,6.3,6.2
	c1.4,3.5,2.1,7.1,3.1,10.7c1.3,4.8,2.9,9.6,4.6,14.3c1.6,4.4,3.3,8.7,5.3,12.9c3,6.6,6.5,13,11.4,18.5c2.8,3,5.9,5.4,10.2,6.2
	c0-0.4,0.2-0.9,0.1-1.3c-2.9-6.7-5.9-13.3-8.6-20c-2-5-3.5-10.3-5.2-15.5c-1.6-5-3.3-9.9-4.8-15c-0.9-3.2-1.6-6.5-2.3-9.7
	c-0.9-3.6-1.8-7.2-2.6-10.9c-0.5-2.5-0.8-5-1.3-7.5c-0.5-3.1-1-6.3-1.6-9.4c0-0.3-0.2-0.6-0.2-0.9c-0.3-5.8-1-11.7-0.1-17.5
	c0.5-3.1,1.9-5.8,4.8-7.2c3.3-1.7,7.3-0.7,8.9,3.2c1.2,2.8,1.8,5.9,2.2,9c0.3,2.6,1,5.1,1.6,7.7c0.5,2.3,0.8,4.7,1.3,7
	c1.1,5.9,2.5,11.6,4.4,17.9c0.3-0.8,0.5-1.2,0.6-1.6c0-0.1,0-0.2,0-0.2c0.4-5.5,0.6-11,1.2-16.5c0.3-3.6,1.1-7.1,1.6-10.6
	c0.4-2.6,0.7-5.2,1.2-7.8c0.5-2.3,1.1-4.6,1.6-6.9c0.7-2.9,1.4-5.9,2.3-8.8c1.2-3.8,2.5-7.7,5.1-10.9c2.4-2.9,7.6-4.4,10.9-2.9
	c2.6,1.2,3.5,3.7,4.1,6.3c1,4.2,0.8,8.6,1.1,12.9c0.3,3.7,1,7.4,1.6,11.1c0.2,1.4,0.4,2.7,0.6,4.1c0.2,0,0.4,0,0.5,0
	c0.2-0.8,0.5-1.6,0.6-2.5c0.2-1.4,0.3-2.9,0.4-4.3c0.7-6.4,1.3-12.9,2-19.3c0.4-3.4,0.8-6.8,1.3-10.2c0.4-2.6,1.1-5.1,1.6-7.7
	c0.4-2.1,0.7-4.2,1.3-6.3c1.8-6.5,3.7-13,7.7-18.5c2-2.7,4.5-4.6,7.8-5.5c3.5-1,7.9,0.9,9.4,4.4c1.3,2.9,2,5.9,2,9
	c0,7-0.1,13.9-0.1,20.9c0,3.8,0,7.5,0.3,11.3c0.4,4.2,1,8.4,1.7,12.6c0.6,3.5,1.3,7.1,2.3,10.5c2.6,8.8,6.5,16.8,14.1,22.4
	c2.9,2.1,5.8,3.7,9.5,3.9c2.8,0.1,5.6,0.5,8.4,0.8c3.2,0.3,5.8,3,6.2,6.2c0.8,6.5-1.6,10.2-7.5,12.4c-3,1.2-6.4,1.9-9.9,0.7
	c-1.9-0.6-4-0.8-6-1.2c-4.5-1-8.4-3.1-12-5.8c-6.9-5.1-12-11.6-15.9-19.2c-2.1-4.2-3.8-8.5-5-13c-1.5-5.1-2.7-10.3-2.9-15.6
	c0-0.3-0.1-0.6-0.2-0.9C394.9,193.6,394.7,193.6,394.6,193.6L394.6,193.6z M296.2,252.2c-3.8-1.9-7.5-1.4-10.9,0.4
	c-5.1,2.8-7.3,7.7-8.8,13c-0.7,2.4-0.8,5-1.3,7.5c-1,4.4-0.7,8.9-0.4,13.4c0.3,3.8,1,7.6,1.5,11.3c0.4,2.7,0.6,5.4,1.3,8
	c1.1,4.4,2.4,8.8,3.7,13.2c1.6,5.7,4.1,11,7.3,15.9c2.3,3.7,4.9,7.2,8.8,9.5c1.4,0.8,3,1.8,4.7,1.3c2.1-0.5,4-1.5,5.3-3.4
	c2.1-2.9,3.1-6.2,3.3-9.8c0.4-6.7-0.1-13.4-1.3-20c-0.4-2-0.7-3.9-1.2-5.9c-0.9-3.7-1.8-7.4-2.8-11.1c-0.7-2.8-1.5-5.7-2.3-8.5
	c-0.8-2.7-1.8-5.4-2.5-8.1c-1.3-4.6-2.6-9.3-3.6-14c-0.6-2.9-0.9-5.8-1.2-8.7C295.6,255.1,296,253.8,296.2,252.2L296.2,252.2z
	 M226.4,344.9c0.1-4.5,0.1-9.1-0.8-13.6c-0.5-2.5-1-4.8-2.3-7c-0.6-1-1.5-1.8-2.4-2.6c-0.9-0.8-1.7-0.7-2.8,0
	c-2.5,1.6-3.6,4.2-4.5,6.8c-1.9,5.7-2.9,11.6-3.2,17.6c-0.4,8.4,0.3,16.6,2.2,24.7c0.8,3.5,1.9,7,2.9,10.5c0.1,0.4,0.6,0.8,0.9,0.8
	c0.3,0,0.8-0.4,0.9-0.8c1.5-3.1,2.9-6.1,4.3-9.2c2.9-6.1,4-12.7,4.6-19.4C226.7,350.2,226.4,347.5,226.4,344.9L226.4,344.9z"/>
<path class="st1" d="M118,251.9c-0.8,0.7-1.3,1-1.6,1.5c-4.6,5.9-9.2,11.7-13.7,17.6c-4.8,6.3-9.5,12.6-14,19.1
	c-5.8,8.4-11.4,16.9-16.9,25.4c-2,3.1-3.7,6.4-6.5,9c-3.2,3-9.5,3.9-13.2,1.7c-3-1.7-4.5-4.3-4.7-7.8c-0.2-4.2,1.4-7.8,3.4-11.2
	c5.4-8.7,10.9-17.2,16.6-25.7c5.9-8.7,11.9-17.3,18-25.9c5.4-7.5,11-14.8,16.7-22.1c6.3-8,12.7-15.9,19.2-23.8
	c12.3-15.1,25.5-29.3,39.2-43.2c8.5-8.6,17.2-17.1,26.6-24.8c2.9-2.4,5.9-4.8,9.5-6.1c5.1-1.9,9.2-0.2,11.4,4.6
	c1,2.2,0.7,4.9-0.1,7.3c-1.4,3.9-4.1,7.1-6.9,10.1c-7.2,7.5-14.5,14.9-21.8,22.4c-10.1,10.4-20.3,20.7-30.2,31.3
	c-5.9,6.4-11.7,12.8-16.8,19.9c-0.3,0.4-0.5,0.8-0.9,1.6c1,0.1,1.8,0.2,2.5,0.1c2.1-0.1,3.6,1,4.5,2.6c1,1.6,1.7,3.4,2.2,5.2
	c1.2,4.1,1.7,8.4,2.2,12.7c0.3,3.1,1.1,6.1,1.6,9.1c0.5,2.8,0.8,5.7,1.2,8.5c0.5,3,1.1,5.9,1.6,8.9c0.4,2,0.7,3.9,1.1,5.9
	c0.8,4.3,1.5,8.6,2.4,12.9c0.8,4.1,1.8,8.1,2.7,12.1c0.4,1.6,0.7,3.3,1,4.9c0.4,2.1,0.8,4.2,1.3,6.3c0.4,2,1,4,1.5,6
	c0.4,1.8,0.9,3.7,1.3,5.5c0.6,2.2,1.1,4.5,1.7,6.7c0.8,3.2,1.5,6.3,2.4,9.5c0.9,3.4,1.9,6.7,2.8,10.1c0.4,1.5,0.8,3.1,1.2,4.6
	c0.9,3.1,1.8,6.2,2.6,9.4c0.8,2.9,1.6,5.8,2.4,8.7c0.8,2.6,1.6,5.2,2.4,7.7c0.9,2.8,1.8,5.6,2.7,8.4c1.2,3.8,2.5,7.5,3.7,11.2
	c1.4,4.3,2.8,8.5,4.2,12.8c1.1,3.1,2.3,6.2,3.5,9.4c1.8,4.7,3.6,9.4,5.5,14.1c1.9,4.8,3.9,9.5,6.1,14.1c2.8,6,5.8,11.9,8.7,17.8
	c0.9,1.9,1.8,3.7,2.4,5.6c2,5.9-1,10.3-6.4,12.2c-7.3,2.7-15.5,0.1-20.2-7c-3.9-5.9-7-12.2-9.7-18.6c-2.4-5.6-4.7-11.2-6.8-16.9
	c-1.9-5.2-3.6-10.5-5.3-15.7c-1.2-3.7-2.6-7.3-3.8-11c-1.1-3.6-2.1-7.3-3.2-10.9c-1.4-4.7-2.9-9.4-4.3-14.1
	c-1.3-4.4-2.5-8.9-3.8-13.3c-1.2-4.1-2.5-8.1-3.6-12.3c-0.9-3.1-1.5-6.3-2.3-9.5c-0.8-3-1.7-6-2.4-9c-0.9-3.8-1.8-7.6-2.7-11.4
	c-0.9-3.6-1.8-7.2-2.6-10.9c-0.4-1.6-0.7-3.3-1-4.9c-0.4-2.4-0.8-4.9-1.2-7.3s-1.1-4.8-1.6-7.2c-0.4-1.9-0.8-3.9-1.1-5.9
	c-0.8-4.4-1.5-8.8-2.3-13.2c-0.5-2.7-1.2-5.4-1.7-8.2c-0.5-2.5-0.8-5-1.2-7.5c-0.5-2.7-1.1-5.4-1.6-8.2c-0.4-1.9-0.7-3.7-1.1-5.6
	c-0.4-2.6-0.8-5.2-1.3-7.8C119,257.5,118.5,255,118,251.9L118,251.9z"/>
<path class="st0" d="M61.6,640.8c-0.8-3.1-1.4-5.7-2-8.3c-0.6-2.4-1.2-4.8-1.7-7.2c-0.7-3-1.4-6-2.2-9c-0.9-3.5-1.7-7-2.6-10.4
	c-0.9-3.5-1.8-6.9-2.7-10.3c-0.8-3-1.8-5.9-2.6-8.9c-0.8-2.9-1.5-5.8-2.2-8.7c-0.8-2.8-1.6-5.5-2.4-8.2c-0.9-2.9-1.7-5.8-2.7-8.7
	c-1.2-3.8-2.4-7.5-3.7-11.2c-0.8-2.3-0.9-4.3,0.4-6.7c2.7-4.8,4.7-10,7.3-14.9c6.4-11.5,14.9-21.3,26.1-28.5
	c3.6-2.3,7.5-3.8,11.7-4.4c4.4-0.6,8.4,0.6,12,3c5.7,3.8,9.7,9.1,12.2,15.5c1.6,4,2.2,8.2,3,12.4c1.4,8,0.9,15.9,0.7,23.9
	c-0.1,3.5-1,6.9-1.6,10.3c-0.3,2-0.8,3.9-1.2,5.8c-0.4,1.9-0.7,3.9-1.2,5.8c-2.1,7.5-4.7,15-8,22.1c-4.2,8.9-9.4,17.3-15.5,25.1
	c-5.6,7.2-12.1,13.5-18.8,19.5C63.4,639.6,62.7,640,61.6,640.8L61.6,640.8z"/>
<path class="st0" d="M489.2,329.6c0.4,2.6,0.8,5.4,1.3,8.1c1,5.9,1.1,11.8,1.2,17.7c0,4.4,0,8.8-0.4,13.2c-0.3,3.5-1.1,6.9-3,9.9
	c-0.9,1.5-2.1,2.6-3.6,3.3c-1.3,0.6-2.7,0.6-4.1-0.2c-2-1.1-3.5-2.8-4.7-4.6c-2.4-3.6-4.1-7.5-5.5-11.5c-1.2-3.8-2.5-7.5-3.6-11.3
	c-0.5-1.6-0.8-3.2-1.1-4.9c-0.5-2.8-1-5.6-1.4-8.5c-1.2-8.4-2-16.8-1.4-25.3c0.4-5.6,0.9-11.3,1.9-16.9c0.8-4.2,1.9-8.5,4.8-12
	c0.2-0.3,0.5-0.6,0.8-0.9c1.9-2.3,4.9-2.2,7,0.1c1.6,1.8,2.5,3.9,3.1,6c2.5,9.1,3.5,18.5,2.9,27.9c0,0.8-0.1,1.6-0.3,2.4
	c-0.3,1.3-0.2,2.5,0.2,3.8c0.7,2.1,1.5,2.9,3.6,3.1c0.6,0.1,1.3,0.1,1.9,0.2C488.8,329.3,488.9,329.4,489.2,329.6L489.2,329.6z"/>
<path class="st0" d="M520.2,417.3c1.4,5.6,2.8,11.2,4.3,16.8c0.9,3.7,1.9,7.4,2.7,11.1c0.5,2.3,0.8,4.7,1.3,7c0.5,2.4,1,4.8,1.5,7.2
	c0.4,2.1,0.9,4.2,1.2,6.3c0.8,6.7,1.8,13.4,1,20c-0.5,4.6-1.5,9.2-4.7,13c-1.5,1.7-3.3,2.9-5.4,3.1c-2.7,0.2-5-1-6.7-3.3
	c-1.7-2.4-2.9-5.1-3.9-7.9c-2.4-6.8-3.2-13.7-3.2-20.9c0-6.3,0.4-12.5,1.3-18.6c0.8-5.5,2.3-10.9,3.6-16.3c1.2-5.1,3-10,5.1-14.8
	c0.4-0.9,0.9-1.8,1.3-2.8C519.8,417.2,520,417.3,520.2,417.3L520.2,417.3z"/>
<path class="st0" d="M558.3,244c0,2.9,0.3,5.8-0.1,8.6c-0.7,5.5-1.5,11-3.6,16.2c-1.5,3.9-3.2,7.7-5.1,11.4c-0.2,0.4-0.7,0.7-1.1,1
	c-0.3-0.4-0.8-0.8-0.9-1.2c-1.3-4.2-2.4-8.5-3.3-12.9c-1.8-8-2.1-16-1.6-24c0.2-3.1,1-6.2,1.6-9.4c0.3-1.7,0.7-3.4,1.2-5.1
	c0.6-2.3,1.6-4.5,3.2-6.3c2.7-3,4.2-2.9,6.5,0.4c1.1,1.6,1.7,3.6,2.2,5.5C558.4,233.4,558.6,238.7,558.3,244L558.3,244z"/>
<path class="st0" d="M182.9,626.6c-0.6-0.4-1.2-0.6-1.3-0.9c-0.8-2.4-1.5-4.8-2.1-7.3c-0.6-2.5-1.2-4.9-1.7-7.4
	c-0.5-2.9-1.1-5.8-1.2-8.8c-0.2-4.7-0.3-9.4,0-14.1c0.2-3.3,1.1-6.6,1.6-9.9c0.5-3.2,1.4-6.1,3-8.9c0.5-0.9,1.2-1.9,1.9-2.6
	c2-2.1,3.2-2,5.1,0.1c1.8,2,2.5,4.6,3,7.1c1.5,7,1.3,14.1,1.1,21.2c-0.1,4-1,7.9-1.8,11.8C189.4,613.8,186.2,620,182.9,626.6
	L182.9,626.6z"/>
<path class="st0" d="M296.2,252.2c-0.2,1.6-0.6,2.8-0.5,4.1c0.3,2.9,0.5,5.9,1.2,8.7c1.1,4.7,2.4,9.4,3.6,14
	c0.8,2.7,1.7,5.4,2.5,8.1c0.8,2.8,1.6,5.6,2.3,8.5c1,3.7,1.9,7.4,2.8,11.1c0.5,1.9,0.8,3.9,1.2,5.9c1.2,6.6,1.7,13.3,1.3,20
	c-0.2,3.6-1.2,6.9-3.3,9.8c-1.3,1.9-3.2,2.8-5.3,3.4c-1.7,0.4-3.2-0.5-4.7-1.3c-3.9-2.3-6.5-5.9-8.8-9.5c-3.1-4.9-5.6-10.2-7.3-15.9
	c-1.2-4.4-2.6-8.8-3.7-13.2c-0.6-2.6-0.9-5.3-1.3-8c-0.5-3.8-1.2-7.5-1.5-11.3c-0.4-4.5-0.6-8.9,0.4-13.4c0.5-2.5,0.6-5.1,1.3-7.5
	c1.5-5.2,3.7-10.2,8.8-13C288.7,250.8,292.3,250.4,296.2,252.2L296.2,252.2z"/>
<path class="st0" d="M226.4,344.9c0,2.6,0.2,5.3,0,7.9c-0.7,6.7-1.8,13.2-4.6,19.4c-1.4,3.1-2.9,6.2-4.3,9.2
	c-0.2,0.4-0.6,0.8-0.9,0.8c-0.3,0-0.8-0.5-0.9-0.8c-1-3.5-2.1-7-2.9-10.5c-1.8-8.1-2.6-16.4-2.2-24.7c0.3-6,1.4-11.9,3.2-17.6
	c0.9-2.6,2-5.1,4.5-6.8c1.1-0.7,1.9-0.9,2.8,0c0.9,0.8,1.8,1.6,2.4,2.6c1.2,2.1,1.8,4.5,2.3,7C226.5,335.8,226.6,340.4,226.4,344.9
	L226.4,344.9z"/>
</svg>
