<?xml version="1.0" encoding="UTF-8"?>
<svg id="_Resurgent" data-name="Resurgent" xmlns="http://www.w3.org/2000/svg" viewBox="0 0 740.16 801.12">
  <defs>
    <style>
      .cls-1 {
        fill: #fff;
      }
    </style>
  </defs>
  <path class="cls-1" d="M92.63,801.12H0V0H740.16V135.31c-.26-1.56-.59-3.11-.76-4.68-.46-4.2-.85-8.41-1.27-12.62-.02-.24-.08-.47-.13-.71-.53-2.65-1.09-5.29-1.58-7.94-.6-3.2-1.48-6.3-3.02-9.18-1.6-2.99-4.51-4.24-8.36-2.51-3.07,1.38-4.61,3.87-4.7,7.33-.07,2.83,.48,5.53,.99,8.27,.57,3.05,.88,6.14,1.27,9.22,.56,4.42,1.41,8.84,1.57,13.28,.26,7.16,.93,14.34-.75,21.47-.97,4.12-2.55,7.81-5.93,10.44-1.01,.78-2.41,1.24-3.69,1.47-3.33,.59-5.85-1.17-8-3.39-4.76-4.92-8.3-10.71-11.35-16.79-2.7-5.37-5.31-10.79-7.28-16.5-1.51-4.39-3.26-8.7-4.83-13.08-1.26-3.52-2.46-7.06-3.58-10.62-1.16-3.7-2.28-7.41-3.26-11.16-.86-3.29-1.53-6.63-2.27-9.94-.35-1.55-.68-3.1-.99-4.65-.65-3.27-1.31-6.54-1.92-9.81-.22-1.21,.07-2.23,.77-3.35,3.2-5.15,6.1-10.49,9.33-15.61,5.72-9.06,10.97-18.45,18.38-26.35,1.43-1.53,2.77-3.41,3.41-5.37,1.04-3.23,.28-6.24-2.56-8.53-2.82-2.27-5.9-2.69-9.18-1.4-3.63,1.43-6.29,4.19-8.8,7.05-5.38,6.13-9.94,12.88-14.43,19.66-.45,.67-.74,1.52-1.79,1.85-.37-1.45-.86-2.73-1-4.06-.47-4.2-.81-8.41-1.21-12.62-.03-.32-.06-.64-.11-.95-.55-3.21-1.03-6.43-1.68-9.61-.5-2.46-1.05-4.95-1.89-7.31-1.63-4.6-3.37-5.71-8.17-5.64-.8,.01-1.6,.07-2.39,.18-1.9,.26-3.43,1.16-4.59,2.7-1.23,1.64-2.04,3.5-2.04,5.52,0,5.67-.13,11.36,.33,17.01,.62,7.56,1.7,15.07,2.65,22.6,.67,5.3,1.45,10.58,2.21,15.86,.08,.54,.38,1.05,.5,1.59,.64,2.82,.89,5.45-.85,8.2-3.66,5.76-7.89,11.07-12.07,16.43-1.55,1.98-3.13,4.02-4.21,6.27-1.15,2.42-1.24,5.18-.03,7.66,1.61,3.3,5.61,4.75,9.45,3.74,4.62-1.22,8.29-3.79,11.05-7.69,.47-.66,.99-1.29,1.61-2.1,.49,.85,.93,1.36,1.1,1.94,.8,2.67,1.52,5.36,2.27,8.04,1.09,3.9,2.13,7.81,3.29,11.69,1.14,3.77,2.38,7.52,3.63,11.25,1.38,4.12,2.62,8.31,4.28,12.33,3.13,7.58,6.52,15.06,10.82,22.07,4.32,7.05,9.18,13.66,15.26,19.32,5.64,5.25,12.06,8.31,20.02,7.57,3.98-.37,7.55-1.6,10.86-3.73,6.75-4.34,10.31-10.96,12.7-18.28,1.18-3.61,2.08-7.34,2.28-11.18,.04-.69,.41-1.36,.62-2.04V801.12H96.47c.44-1.29,1.81-.77,2.64-1.33,2.8-1.89,5.33-4.08,6.85-7.13,.69-1.38,1.32-3.06,1.16-4.52-.24-2.25-.96-4.52-1.85-6.62-3.27-7.79-6.76-15.49-10.02-23.27-2.08-4.96-3.97-10.01-5.86-15.06-1.19-3.18-2.23-6.41-3.33-9.63-1.17-3.43-2.4-6.84-3.49-10.3-1.16-3.7-2.17-7.46-3.28-11.18-1.89-6.31-3.82-12.6-5.69-18.91-.19-.64-.09-1.37-.14-2.25,.91,.11,1.64,.08,2.29,.3,2.91,.99,5.8,2.04,8.69,3.09,4.38,1.59,8.74,3.22,13.13,4.79,3.59,1.28,7.19,2.52,10.8,3.75,2.24,.76,4.49,1.5,6.75,2.21,3.7,1.14,7.41,2.25,11.11,3.37,2.96,.9,5.9,1.86,8.87,2.68,4.22,1.16,8.46,2.23,12.7,3.3,3.53,.9,7.05,1.81,10.6,2.61,3.55,.81,7.14,1.48,10.7,2.24,1.47,.31,2.95,.64,4.4,1.02,3.63,.94,7.24,1.59,11.06,.91,2.6-.46,4.4-1.74,5.63-3.87,1.68-2.93,2.53-6.08,2.49-9.55-.03-2.76-1.2-4.69-3.26-6.23-.82-.61-1.76-1.17-2.73-1.43-2.92-.79-5.87-1.47-8.82-2.11-2.25-.49-4.54-.82-6.8-1.3-2.25-.48-4.46-1.08-6.71-1.57-3.49-.75-6.99-1.43-10.47-2.19-1.39-.3-2.76-.71-4.12-1.13-2.79-.87-5.56-1.79-8.35-2.69-2.8-.9-5.61-1.8-8.41-2.69-3.54-1.12-7.08-2.25-10.63-3.34-2.57-.78-5.17-1.45-7.73-2.24-3.92-1.22-7.82-2.51-11.74-3.75-3.64-1.15-7.33-2.18-10.93-3.43-4.1-1.43-8.17-2.93-12.17-4.61-3.77-1.58-7.42-3.43-11.39-5.28,.84-.8,1.38-1.35,1.96-1.86,2.59-2.3,5.25-4.52,7.78-6.89,7.69-7.19,14.75-14.95,20.95-23.45,4.98-6.82,9.48-13.95,13.63-21.34,4.91-8.77,9.13-17.83,12.49-27.27,1.81-5.08,3.02-10.37,4.43-15.58,.48-1.76,.78-3.57,1.07-5.37,.6-3.68,1.48-7.36,1.64-11.06,.27-6.23,.2-12.48,.03-18.71-.08-3.01-.47-6.06-1.15-8.99-1.02-4.39-2.06-8.78-3.71-13.02-2.72-6.99-6.38-13.4-11.23-19.09-3.93-4.62-8.37-8.68-13.79-11.53-3.29-1.73-6.66-3.27-10.37-3.8-3.62-.52-7.25-1.25-10.88-1.25-3.14,0-6.29,.85-9.41,1.42-4.16,.75-7.92,2.58-11.58,4.6-8.07,4.45-14.78,10.54-20.88,17.36-5.38,6.01-10.16,12.48-14.39,19.35-.98,1.59-2.04,2.14-3.86,1.99-3.93-.32-7.61,.65-10.81,3.01-3.86,2.84-6.5,7.72-4.13,12.95,1.28,2.81,2.55,5.63,3.9,8.4,.58,1.18,.59,2.23,.02,3.4-3.2,6.55-6.06,13.24-7.88,20.31-1.01,3.91-1.92,7.77-.99,11.95,.75,3.37,2.21,6.04,4.9,8.07,3.5,2.64,9.13,2.67,11.36-2.49,.72-1.67,1.38-3.38,2.16-5.02,.71-1.5,.94-3.3,2.45-4.47,9.11,25.6,14.74,51.94,20.19,78.53-1.34,.73-2.73,1.44-4.07,2.24-2.89,1.74-5.01,4.19-5.62,7.52-.88,4.76,.37,8.97,4.11,12.26,2.86,2.52,6.16,4.38,9.55,6.06,1.34,.67,2.02,1.56,2.24,3.06,.29,2.03,.82,4.04,1.3,6.04,.48,2,1.04,3.98,1.54,5.98,.55,2.23,1.03,4.48,1.6,6.71,.82,3.24,1.7,6.46,2.55,9.7,1.09,4.14,2.14,8.29,3.3,12.41,.77,2.73,1.74,5.41,2.55,8.12,.8,2.65,1.41,5.35,2.28,7.98,1.95,5.88,3.94,11.75,6.05,17.56,2.13,5.85,4.31,11.68,6.69,17.43,2.24,5.41,4.65,10.75,7.25,16,1.32,2.66,2.9,5.32,5.77,6.74,1.04,.52,2.15,.92,3.22,1.38ZM641.08,180.63c.19,1.27,.24,2.32,.51,3.31,.87,3.22,1.72,6.46,2.78,9.62,1.4,4.2,2.81,8.42,4.52,12.5,2.74,6.49,6.19,12.61,10.61,18.15,4.35,5.45,9.23,10.31,15.27,13.93,4.76,2.86,9.85,4.69,15.33,5.49,5.51,.8,10.4-.37,14.6-4.2,3.11-2.84,3.14-6.39,2.66-10.12-.05-.36-.38-.68-.59-1.02-1.25-1.98-3.33-2.58-5.39-3.15-2.82-.78-5.74-1.26-8.47-2.24-5.84-2.1-10.86-5.51-15-10.16-4.78-5.36-8.46-11.44-11.35-17.97-1.53-3.46-2.85-7.04-3.97-10.65-.96-3.09-1.59-6.3-2.24-9.48-.94-4.59-2.04-9.17-2.6-13.81-.73-6.02-1.01-12.1-1.46-18.16-.34-4.62-.49-9.27-1.01-13.87-.47-4.16-2.26-7.72-5.92-10.1-1.71-1.11-3.59-1.94-5.6-1.33-1.62,.5-3.17,1.27-4.53,2.48-3.52,3.14-5.32,7.27-6.77,11.53-1.33,3.9-2.32,7.92-3.26,11.94-1.01,4.32-1.94,8.67-2.65,13.05-.8,4.95-1.39,9.94-1.9,14.92-.53,5.16-.84,10.34-1.25,15.51-.06,.74-.15,1.49-.23,2.23l-.6,.02c-.46-2.24-.95-4.47-1.38-6.71-.6-3.13-1.32-6.26-1.71-9.42-.45-3.72-.92-7.42-2.1-11-1.83-5.55-6.05-7.65-11.31-6.64-2.46,.47-4.87,1.67-5.73,4.49-.43,1.43-.78,2.88-1.21,4.3-.74,2.44-.57,4.91-.23,7.37,.42,3.07,.98,6.13,1.47,9.19,.4,2.51,.75,5.03,1.2,7.53,.31,1.71,.75,3.41,1.14,5.11,.54,2.31,1.11,4.62,1.65,6.93,.44,1.85,.85,3.71,1.31,5.55,.54,2.16,1.13,4.3,1.67,6.46,.28,1.12,.51,2.26,.77,3.45-.54,.16-.84,.32-1.14,.32-2.57,0-4.17,1.62-5.2,3.61-.78,1.5-1.2,3.32-1.3,5.02-.36,6.54-.47,13.09-.79,19.64-.21,4.3-.08,8.62-1.06,12.88-.84,3.64-1.27,7.38-2.03,11.04-1.25,6-3.3,11.72-6.19,17.14-2.94,5.52-6.73,10.29-11.79,14.05-4.32,3.21-9,4.65-14.35,3.79-3.46-.56-5.79-2.73-7.89-5.32,.62-1.01,1.18-1.85,1.67-2.73,3.15-5.68,6.2-11.41,8.42-17.53,1.1-3.04,2.23-6.07,3.16-9.16,1.03-3.42,2.05-6.87,2.69-10.38,.76-4.15,1.13-8.38,1.63-12.58,.77-6.42-.14-12.78-.8-19.14-.28-2.76-1.19-5.45-1.76-8.18-1.17-5.64-3.21-10.93-6.47-15.69-1.9-2.77-4.29-5.14-7.55-6.18-5.95-1.91-11.27-.34-16,3.5-3.42,2.77-5.95,6.29-8.09,10.11-2.17,3.87-3.95,7.9-5,12.23-.88,3.62-2.02,7.18-2.68,10.83-.72,4-1.02,8.08-1.5,12.12-.97,8.22-.83,16.45-.31,24.68,.09,1.42-.14,2.65-.71,3.92-.38,.85-.64,1.8-.72,2.72-.2,2.41,.39,4.72,.86,7.08,.91,4.54,1.67,9.14,2.03,13.74,.61,7.73,.83,15.48,1.26,23.22,.32,5.79-.67,11.48-1.25,17.19-.42,4.12-1.28,8.21-2.03,12.29-.3,1.64-.82,3.24-1.25,4.86-.94-1.59-1.47-3.15-1.97-4.73-.86-2.71-1.77-5.4-2.54-8.13-.83-2.97-1.53-5.97-2.28-8.96-.92-3.7-1.91-7.38-2.73-11.1-.87-3.97-1.56-7.98-2.33-11.98-.38-1.95-.75-3.9-1.13-5.85-.52-2.65-1.12-5.28-1.54-7.95-.46-2.91-.73-5.84-1.13-8.76-.25-1.85-1.36-2.96-3.24-3.27-1.57-.26-3.14-.51-4.73-.67-1.02-.1-1.57-.61-1.93-1.51-1.01-2.57-1.88-5.2-3.11-7.66-2.38-4.78-5.28-9.19-9.74-12.39-1.77-1.27-3.69-2.29-5.76-2.56-5.2-.66-10.07,.5-14.43,3.53-5.42,3.77-9.06,9-11.89,14.81-1.52,3.12-2.8,6.37-3.95,9.64-.89,2.53-1.5,5.17-2.09,7.79-.52,2.32-.89,4.68-1.24,7.04-.58,3.93-1.26,7.87-1.59,11.82-.28,3.34-.17,6.71-.18,10.07,0,2.64,.12,5.28,.07,7.92-.01,.7-.29,1.8-.77,2.02-2.64,1.21-3.46,3.73-4.26,6.05-1.53,4.4-2.68,8.93-3.99,13.4-1.48,5.03-3.47,9.85-6.16,14.34-1.08,1.79-2.51,3.46-4.07,4.84-2.18,1.93-4.23,1.65-5.84-.81-.93-1.42-1.67-3.16-1.86-4.83-.86-7.69-.09-15.33,1.33-22.9,.74-3.96,1.04-7.92,.62-11.92-.21-2.04-1.47-3.21-3.26-4.02-1.96-.89-4.01-.97-6.1-.94-3.31,.04-5.59,1.65-6.74,4.7-2.09,5.54-3.89,11.18-5.11,16.99-.33,1.55-.73,3.09-1.09,4.63-.56,2.39-1.23,4.77-1.65,7.18-.87,5.03-1.66,10.08-2.4,15.13-.93,6.31-1.95,12.62-2.62,18.97-.61,5.79-.8,11.63-1.19,17.45-.04,.56-.19,1.11-.37,2.15-2.07-4.96-2.69-9.71-3.31-14.39-.77-5.77-.86-11.62-1.23-17.44-.07-1.04,.06-2.1-.12-3.11-.53-2.97-1-5.97-1.82-8.87-.86-3.05-3.88-4.16-6.1-3.99-2.95,.23-5.68,1.44-7.54,3.97-1.92,2.61-3.03,5.64-3.39,8.78-1.04,9.19-.18,18.34,1.03,27.46,.02,.16,.06,.31,.1,.47,.92,4.28,1.78,8.58,2.78,12.84,1.03,4.41,2.11,8.81,3.34,13.17,1.15,4.1,2.42,8.17,3.84,12.18,2.03,5.75,4.15,11.47,6.42,17.13,2.64,6.58,5.5,13.07,8.21,19.62,.27,.65,.18,1.44,.29,2.4-2.68-.27-4.91-.46-7.17-1.2-5.97-1.94-10.96-5.25-14.94-10.04-5.16-6.22-7.7-13.7-9.88-21.31-.88-3.06-1.48-6.2-2.36-9.26-1.15-4.04-2.54-8.01-3.66-12.06-1-3.6-2.46-7-4.16-10.29-2.83-5.48-8.56-6.46-13.22-4.27-3.54,1.67-5.21,4.89-5.66,8.57-.54,4.44-.37,8.88,.76,13.31,.83,3.25,1.69,6.45,3,9.54,1.14,2.7,2.28,5.4,3.24,8.16,1.47,4.25,2.83,8.54,4.15,12.83,.95,3.1,1.97,6.21,2.6,9.39,1,5.08,1.65,10.23,2.55,15.33,1.15,6.51,1.02,13.07,.66,19.62-.19,3.45-1.01,6.87-3.34,9.55-2.67,3.08-4.42,3.2-7.28,.91-.5-.4-.95-.86-1.37-1.34-3.67-4.26-6.1-9.22-7.98-14.45-1.17-3.27-2.22-6.59-3.17-9.93-1.02-3.59-1.99-7.21-2.74-10.86-.66-3.2-1.1-6.45-1.43-9.7-.65-6.35-1.27-12.71-1.67-19.08-.29-4.77-.01-9.58-1.07-14.31-.5-2.22-1.28-4.34-3.43-5.38-3.76-1.81-8.33-.24-10.57,2.44-1.93,2.31-3.16,5.03-3.7,7.84-.97,5.08-1.42,10.26-2.07,15.41-.14,1.08-.24,2.16-.4,3.66-1.05-3.07-1.76-5.75-2.87-8.25-1.93-4.31-4.66-8.06-8.7-10.69-3.57-2.32-7.45-3.32-11.63-2.3-4.69,1.14-8.81,3.49-12.58,6.48-8.09,6.41-14.73,14.07-19.91,22.99-2.99,5.15-5.57,10.5-7.27,16.24-.69,2.35-1.41,4.69-2.01,7.06-.64,2.53-1.39,5.08-1.64,7.66-.44,4.52-.63,9.06-.23,13.64,.29,3.3,1.08,6.46,2.33,9.42,2.83,6.69,7.64,11.72,13.97,15.29,4.14,2.33,8.51,4.11,13.18,5.07,4.43,.91,8.82,2.07,13.29,2.66,5.01,.66,9.9,1.56,14.65,3.29,4.23,1.55,7.73,3.94,9.98,7.96,2.24,4.01,2.35,8.09,.14,12.07-4.31,7.79-11.33,11.19-19.92,11.67-1.63,.09-3.28-.55-4.94-.69-2.46-.2-4.65-1.2-6.56-2.53-7.21-5.05-11.74-12-14-20.49-.28-1.05-.74-2.11-1.35-3-1.4-2.04-3.08-2.37-5.4-1.3-.92,.42-1.85,1.05-2.8,1.12-3.09,.23-4.55,2.21-5.6,4.75-1.28,3.13-1.02,6.44-1.12,9.71-.15,4.95-.18,9.92-.48,14.86-.27,4.37-.73,8.75-1.34,13.09-.57,4.08-1.2,8.19-2.23,12.17-.9,3.49-2.28,6.88-3.62,10.24-2.97,7.42-7.43,13.74-13.91,18.56-3.27,2.43-6.82,4.03-10.93,4.01-2.29-.01-4.67,.03-6.67-1.37-1.72-1.2-3.61-2.27-4.43-4.04,2.12-4.11,4.04-7.98,6.08-11.78,3.28-6.1,5.59-12.59,7.61-19.17,1.29-4.23,2.19-8.61,2.89-12.99,.62-3.85,.96-7.79,.99-11.69,.03-4.22-.37-8.45-.73-12.66-.26-3.01-.54-6.05-1.25-8.97-.98-4.06-1.96-8.14-3.71-11.97-1.72-3.78-3.82-7.26-6.96-10.07-2.6-2.32-5.73-3.27-9.02-3.16-4.65,.15-8.76,1.88-12.21,5.22-5.18,5.01-8.48,11.12-10.87,17.78-1.42,3.96-2.64,7.98-3.31,12.18-.64,4-1.58,7.95-1.76,12.02-.07,1.51-.53,3-.54,4.5-.09,7.59-.26,15.19-.05,22.77,.1,3.55,1.01,7.07,1.59,10.6,.36,2.2,.53,4.46,1.22,6.56,1.44,4.36,3.06,8.68,4.82,12.92,3.35,8.11,8.58,14.9,15.02,20.79,3.79,3.47,8.13,6.23,13.18,6.99,5.5,.83,11.04,.59,16.44-1.57,6.5-2.59,11.77-6.72,16.3-11.86,4.89-5.54,8.74-11.8,11.7-18.57,1.55-3.53,2.98-7.12,4.24-10.77,.96-2.76,1.62-5.62,2.3-8.46,1.02-4.25,2.03-8.51,2.88-12.79,.56-2.81,.8-5.69,1.22-8.53,.2-1.34,.81-1.54,1.89-.7,1.25,.97,2.47,1.98,3.75,2.9,5.6,4.04,11.81,6.44,18.75,6.64,3.49,.1,6.96,.19,10.44-.81,2.67-.77,5.27-1.61,7.78-2.78,5.46-2.56,10.01-6.35,14.22-10.59,6.07-6.12,10.04-13.44,11.69-21.84,1-5.08,1.06-10.25-.64-15.38-2.08-6.28-5.9-11.09-11.32-14.68-5.79-3.84-12.45-5.36-19.1-6.81-3.8-.83-7.67-1.34-11.51-1.96-5.3-.85-10.36-2.41-15.1-4.97-6.98-3.78-10.63-9.64-11.09-17.54-.35-6.14,.87-11.99,2.79-17.81,1.69-5.14,3.74-10.06,6.79-14.52,2.39-3.49,5.09-6.71,8.89-8.78,2.02-1.1,4.24-1.3,6.18-.14,2.69,1.61,4.5,3.98,4.43,7.37-.05,2.7-.02,5.34-.83,8.03-.87,2.9-1.82,5.72-3.46,8.24-2.63,4.05-5.38,8.02-8.14,11.98-3.05,4.37-2.68,11.16,3.34,13.53,1.57,.62,3.06,.64,4.64,.03,2.13-.83,3.88-2.19,5.42-3.81,7.28-7.68,11.62-17.02,14.86-26.92,1.29-3.94,2.02-8.04,2.31-12.2,.02-.23,.15-.44,.23-.66,.54,2.05,.63,4.05,.97,6,.78,4.46,1.77,8.89,2.52,13.35,.64,3.84,1.8,7.53,2.84,11.26,1.37,4.9,3.14,9.62,5.28,14.21,3.36,7.21,7.57,13.86,13.27,19.49,5.33,5.26,11.5,8.25,19.2,7.9,4.43-.2,8.17-1.75,11.5-4.49,6.33-5.21,9.13-12.19,10.01-20.12,.11-.95,.23-1.91,.27-2.86,.15-3.67,.42-7.34,.34-11-.09-4.15-.53-8.29-.79-12.43-.04-.58,.12-1.17,.21-2.02,.73,.46,1.2,.71,1.63,1.02,1.89,1.41,3.7,2.95,5.67,4.24,5.66,3.73,11.81,6.2,18.67,6.32,2.37,.04,4.75-.47,7.12-.8,5.41-.76,9.95-3.22,14.16-6.68,4.78-3.93,5.46-8.87,4.26-14.38-.76-3.47-1.82-6.87-2.75-10.31-.41-1.53-.84-3.05-1.24-4.59-.52-1.98-1.09-3.96-1.53-5.96-.47-2.17-.79-4.38-1.23-6.56-.55-2.73-1.31-5.43-1.71-8.18-.61-4.19-1.06-8.41-1.45-12.62-1.28-14.06-1.08-28.12,.49-42.15,.19-1.67,.37-3.38,1.39-5.25,1.06,3.43,2.72,6.03,5.28,8.04,2.57,2.02,5.44,3.2,8.67,2.46,4.63-1.06,8.86-3.13,12.33-6.42,7.59-7.19,12.39-16.05,15.22-26.05,.31-1.09,.85-2.12,1.41-3.46,1.22,3.73,2.33,7.09,3.43,10.45,2.35,7.16,5.34,13.99,9.8,20.13,2.75,3.78,6.02,6.89,10.33,8.86,2.11,.97,4.37,1.33,6.55,1.98,3.24,.97,6.22,.21,9.1-.81,4.08-1.44,7.03-4.43,9.29-8.09,4.29-6.92,5.93-14.65,6.98-22.56,.2-1.5,.11-3.04,.32-4.55,.13-.95,.56-1.85,.89-2.88,.41,.32,.6,.4,.64,.52,1.13,3.62,2.22,7.25,3.39,10.86,1.15,3.55,2.48,7.04,3.53,10.62,.31,1.07,.11,2.37-.17,3.49-.4,1.61-1.09,3.15-1.65,4.73-1.12,3.2-2.22,6.41-3.35,9.61-1.17,3.34-2.38,6.67-3.55,10.02-.86,2.46-1.67,4.95-2.51,7.42-1.18,3.46-2.42,6.9-3.55,10.37-.83,2.55-1.55,5.14-2.28,7.73-.9,3.19-1.86,6.37-2.58,9.61-.59,2.63-.91,5.32-1.27,8-.58,4.26-1.32,8.52-1.59,12.81-.34,5.34-.12,10.66,.61,16.02,.66,4.84,1.75,9.52,3.46,14.03,2.01,5.28,5.09,9.98,8.96,14.13,4.44,4.76,9.91,7.58,16.34,8.38,3.72,.46,7.3-.56,10.6-2.15,6.57-3.17,11.33-8.31,14.65-14.71,4.07-7.85,5.59-16.4,6.08-25.11,.35-6.38,.23-12.78-.77-19.14-.72-4.57-1.16-9.19-1.92-13.75-.58-3.45-1.47-6.85-2.23-10.26-.74-3.33-1.38-6.68-2.25-9.97-1.11-4.2-2.42-8.34-3.62-12.51-1.28-4.42-2.53-8.85-3.81-13.28-.84-2.9-1.68-5.8-2.55-8.69-.73-2.42-1.39-4.87-2.28-7.23-.72-1.9-.79-3.65,0-5.54,.6-1.45,.99-3,1.4-4.53,.79-2.99,1.55-5.99,2.25-9,1.29-5.5,2.67-10.99,3.76-16.53,.84-4.29,1.47-8.64,1.9-13,.54-5.48,.8-10.99,1.14-16.49,.1-1.59,.02-3.2,.06-4.8,.02-.5,.19-1,.31-1.64,2.29,2.05,4.35,4,6.54,5.8,3.48,2.87,7.47,4.99,11.91,5.63,8.36,1.21,16.07-.78,23.08-5.6,7.43-5.1,12.77-11.98,17.17-19.67,2.94-5.14,5.37-10.53,7.08-16.21,1.6-5.32,3.33-10.6,4.73-15.97,.92-3.53,1.52-7.16,1.96-10.78,.56-4.51,.81-9.05,1.19-13.58,.06-.67,.15-1.34,.22-2.01,1.15,1.83,1.98,3.67,2.57,5.59,1.66,5.38,3.77,10.59,6.39,15.57,1.66,3.15,3.65,5.99,7.53,7.02,4.69,1.24,8.88-.29,11.35-4.48,2.19-3.74,2.37-7.73,1.59-11.82-.54-2.82-1.27-5.59-1.92-8.39-.39-1.71-.79-3.41-1.17-5.12-.54-2.4-1.16-4.78-1.57-7.2-.5-2.98-.85-5.99-1.21-9-.58-4.82-1.25-9.64-1.64-14.47-.26-3.18-.12-6.4-.1-9.6,.01-2.24-.02-4.49,.24-6.71,.48-4.18,1.17-8.35,1.75-12.52,.13-.97,.27-1.88,1.63-2.43Zm-246.46,12.96c.17,.03,.34,.06,.5,.08,.07,.3,.2,.59,.22,.89,.26,5.35,1.45,10.5,2.93,15.64,1.29,4.51,2.92,8.84,5.05,13.01,3.87,7.58,8.93,14.14,15.86,19.19,3.67,2.67,7.58,4.81,12.04,5.81,2.01,.45,4.11,.59,6.05,1.23,3.43,1.14,6.84,.45,9.85-.71,5.86-2.27,8.32-5.91,7.51-12.44-.4-3.23-3.02-5.88-6.24-6.2-2.78-.28-5.56-.71-8.35-.8-3.7-.12-6.68-1.73-9.53-3.86-7.59-5.66-11.5-13.64-14.06-22.41-1-3.43-1.68-6.97-2.28-10.5-.7-4.16-1.32-8.35-1.67-12.55-.31-3.74-.26-7.51-.27-11.27,0-6.96,.09-13.92,.11-20.88,0-3.14-.69-6.14-1.97-8.99-1.54-3.42-5.86-5.36-9.4-4.36-3.26,.92-5.77,2.8-7.75,5.53-4.05,5.57-5.9,12.04-7.71,18.52-.57,2.05-.85,4.19-1.29,6.28-.53,2.56-1.2,5.1-1.61,7.68-.54,3.38-.92,6.79-1.29,10.19-.69,6.43-1.33,12.87-1.98,19.31-.15,1.43-.24,2.87-.44,4.3-.12,.84-.4,1.65-.6,2.48-.18,0-.35,0-.53,0-.21-1.37-.42-2.74-.62-4.1-.54-3.7-1.27-7.38-1.58-11.1-.35-4.29-.15-8.63-1.14-12.86-.61-2.6-1.43-5.13-4.06-6.34-3.25-1.5-8.47-.04-10.87,2.89-2.62,3.2-3.87,7.07-5.09,10.92-.91,2.87-1.54,5.83-2.27,8.75-.58,2.3-1.19,4.6-1.64,6.93-.5,2.57-.82,5.18-1.22,7.77-.55,3.53-1.28,7.05-1.62,10.6-.53,5.48-.79,10.98-1.17,16.48,0,.08,0,.17-.02,.24-.14,.37-.28,.73-.62,1.58-1.89-6.22-3.28-12.01-4.43-17.86-.46-2.34-.84-4.7-1.3-7.04-.51-2.57-1.23-5.1-1.56-7.69-.39-3.09-1.01-6.14-2.22-8.96-1.67-3.87-5.59-4.89-8.93-3.19-2.91,1.48-4.34,4.17-4.83,7.24-.92,5.81-.23,11.65,.1,17.47,.02,.32,.13,.63,.18,.94,.52,3.14,1.05,6.27,1.57,9.41,.42,2.51,.72,5.04,1.26,7.52,.79,3.63,1.75,7.23,2.62,10.85,.78,3.24,1.4,6.53,2.34,9.73,1.47,5.02,3.12,9.99,4.75,14.96,1.69,5.17,3.23,10.4,5.23,15.45,2.67,6.76,5.73,13.37,8.58,20.05,.15,.35-.06,.85-.1,1.28-4.31-.83-7.47-3.21-10.23-6.25-4.96-5.45-8.39-11.86-11.43-18.47-1.94-4.21-3.7-8.53-5.28-12.89-1.71-4.7-3.26-9.46-4.6-14.28-.99-3.57-1.65-7.24-3.07-10.7-1.22-2.98-2.93-5.4-6.27-6.25-1.15-.29-2.27-.7-3.61-1.13-.38-.9-.78-2.01-1.3-3.07-1.24-2.54-2.43-5.13-4.5-7.16-4.27-4.21-9.62-4.21-14.8-3.11-5.73,1.21-10.28,4.78-14.08,9.27-4.39,5.19-7.52,11.02-9.65,17.48-2.18,6.63-3.66,13.36-4.03,20.33-.04,.72-.07,1.45-.2,2.15-.96,4.92-.69,9.88-.29,14.81,.35,4.36,1.02,8.71,1.61,13.05,.34,2.53,.64,5.08,1.25,7.55,1.14,4.55,2.51,9.04,3.77,13.56,1.21,4.34,2.79,8.53,4.67,12.62,.91,1.98,1.25,4.01,.97,6.23-.63,4.98-1,9.99-1.56,14.98-.3,2.68-.58,5.4-1.25,8-1.07,4.12-2.35,8.2-3.75,12.22-2.21,6.37-5.64,12.09-10.34,16.9-5.05,5.17-10.88,8.83-18.63,7.65-3.55-.54-5.91-2.68-7.86-5.12,2.41-4.76,4.82-9.19,6.92-13.76,2.09-4.53,3.97-9.16,5.74-13.83,.95-2.5,1.53-5.16,2.13-7.78,.51-2.24,.71-4.56,1.22-6.8,1.06-4.69,1.49-9.46,1.58-14.22,.07-4.05-.4-8.12-.77-12.17-.27-2.93-.61-5.87-1.24-8.73-.68-3.08-1.69-6.09-2.63-9.11-1.34-4.3-3.52-8.16-6.47-11.54-2.82-3.22-6.53-4.84-10.72-4.69-3.39,.12-6.67,1.15-9.55,3.19-3.95,2.8-6.87,6.53-9.16,10.68-1.83,3.32-3.29,6.87-4.64,10.42-1.08,2.87-1.86,5.88-2.55,8.87-.59,2.55-.91,5.16-1.25,7.76-.59,4.58-1.45,9.15-1.58,13.75-.22,7.65-.62,15.31,.58,22.97,.63,4,1.07,8.01,1.99,11.97,1.04,4.49,2.38,8.84,4.18,13.08,4.09,9.65,10,17.94,18.17,24.54,3.24,2.61,6.96,4.57,11.01,5.24,5.04,.83,10.21,.65,15.12-1.05,4.68-1.63,8.83-4.22,12.58-7.47,7.11-6.18,12.15-13.86,16.14-22.28,3.08-6.51,5.44-13.28,7.17-20.29,1.11-4.47,2.35-8.89,2.89-13.48,.1-.83,.07-1.84,1.32-2.01,.18,.12,.41,.21,.58,.37,4.11,3.86,8.76,6.56,14.38,7.81,4.24,.94,8.32,.74,12.21-.72,5.57-2.09,9.83-5.93,12.61-11.29,2.34-4.5,3.64-9.26,3.86-14.32,.3-7.12,.07-14.21-1.14-21.25-.11-.62-.37-1.22-.51-1.83-.29-1.27-.6-2.55-.12-4.08,1.72,1.69,3.25,3.13,4.7,4.63,5.34,5.53,11.47,9.33,19.42,9.81,4.03,.25,7.89-.03,11.78-1.09,4.2-1.15,7.65-3.41,10.7-6.37,2.17-2.11,3.27-4.69,3.37-7.82,.07-2.34-.89-4.36-1.5-6.45-1.11-3.78-2.71-7.41-4.09-11.1-2.38-6.34-3.95-12.92-5.49-19.49-.94-4.01-1.47-8.14-1.96-12.24-.47-3.96-.77-7.95-.91-11.94-.16-4.39-.18-8.76,.47-13.15,.59-3.93,.15-7.98,1.24-11.88,.13-.46,.29-.91,.57-1.74,.86,3.2,1.58,5.95,2.35,8.69,1.45,5.13,2.8,10.29,4.44,15.36,1.35,4.19,3.11,8.25,4.57,12.41,1.94,5.55,4.29,10.91,7.13,16.04,1.37,2.47,2.76,4.95,5.1,6.72,3.05,2.3,6.18,2.36,9,.29,3.93-2.88,5.17-6.93,4.53-11.56-.38-2.74-1.18-5.42-1.83-8.12-.86-3.62-1.9-7.2-2.6-10.85-.81-4.22-1.49-8.47-1.97-12.73-.51-4.53-.85-9.08-1.03-13.63-.43-11.12-.28-22.23,.94-33.31,.14-1.31,.66-2.58,1.01-3.87ZM117.99,251.93c.56,3.08,1.03,5.56,1.45,8.05,.44,2.58,.82,5.18,1.27,7.76,.32,1.88,.7,3.75,1.06,5.62,.54,2.72,1.13,5.43,1.62,8.16,.45,2.5,.74,5.04,1.21,7.54,.52,2.74,1.23,5.44,1.74,8.18,.82,4.39,1.55,8.8,2.34,13.2,.35,1.95,.73,3.91,1.14,5.85,.5,2.41,1.1,4.79,1.57,7.2,.47,2.41,.81,4.85,1.25,7.27,.3,1.64,.61,3.28,1,4.9,.86,3.62,1.78,7.23,2.65,10.85,.91,3.79,1.76,7.59,2.7,11.37,.75,3.01,1.66,5.98,2.42,8.98,.8,3.15,1.41,6.35,2.27,9.48,1.12,4.11,2.43,8.17,3.62,12.26,1.28,4.42,2.48,8.87,3.79,13.28,1.4,4.71,2.9,9.39,4.32,14.09,1.09,3.62,2.07,7.29,3.22,10.89,1.18,3.69,2.52,7.32,3.76,10.98,1.78,5.24,3.41,10.54,5.34,15.73,2.12,5.69,4.42,11.32,6.79,16.91,2.74,6.46,5.81,12.75,9.7,18.64,4.73,7.15,12.87,9.71,20.2,7.03,5.34-1.95,8.41-6.35,6.38-12.22-.67-1.94-1.55-3.81-2.44-5.65-2.89-5.96-5.92-11.85-8.73-17.84-2.18-4.65-4.18-9.39-6.13-14.15-1.92-4.67-3.69-9.4-5.51-14.11-1.2-3.11-2.44-6.21-3.53-9.36-1.47-4.24-2.81-8.53-4.22-12.8-1.24-3.74-2.51-7.47-3.73-11.22-.92-2.8-1.79-5.62-2.66-8.43-.8-2.57-1.6-5.14-2.35-7.73-.83-2.88-1.6-5.78-2.41-8.67-.87-3.12-1.76-6.23-2.62-9.35-.42-1.53-.77-3.08-1.19-4.61-.93-3.37-1.91-6.73-2.81-10.11-.84-3.15-1.58-6.32-2.37-9.48-.56-2.22-1.14-4.44-1.69-6.67-.46-1.84-.88-3.69-1.33-5.54-.49-2-1.04-3.98-1.49-5.99-.47-2.09-.84-4.2-1.27-6.3-.33-1.63-.67-3.27-1.03-4.89-.9-4.04-1.89-8.07-2.71-12.13-.87-4.29-1.58-8.61-2.37-12.92-.36-1.95-.73-3.9-1.09-5.86-.55-2.96-1.14-5.92-1.62-8.9-.46-2.83-.75-5.68-1.21-8.51-.49-3.06-1.26-6.08-1.6-9.15-.47-4.28-.98-8.54-2.17-12.68-.53-1.82-1.24-3.64-2.22-5.24-.96-1.57-2.44-2.69-4.51-2.59-.74,.03-1.48-.08-2.52-.15,.45-.78,.64-1.2,.9-1.57,5.07-7.09,10.87-13.59,16.79-19.93,9.88-10.6,20.11-20.86,30.21-31.26,7.27-7.48,14.6-14.88,21.81-22.41,2.83-2.96,5.49-6.12,6.94-10.07,.89-2.42,1.14-5.06,.15-7.26-2.19-4.87-6.35-6.53-11.42-4.63-3.59,1.35-6.57,3.74-9.51,6.14-9.4,7.68-18.07,16.15-26.58,24.78-13.66,13.84-26.87,28.11-39.19,43.17-6.45,7.89-12.9,15.8-19.18,23.83-5.68,7.27-11.27,14.63-16.67,22.11-6.14,8.51-12.14,17.13-18,25.85-5.68,8.45-11.22,17.01-16.59,25.67-2.07,3.33-3.65,7-3.44,11.16,.18,3.47,1.75,6.05,4.7,7.77,3.7,2.15,9.97,1.32,13.19-1.7,2.74-2.57,4.45-5.86,6.46-8.99,5.5-8.57,11.14-17.05,16.93-25.42,4.49-6.49,9.23-12.81,13.97-19.12,4.47-5.94,9.08-11.76,13.65-17.62,.36-.46,.87-.81,1.64-1.5Z"/>
  <path d="M92.63,801.12c-1.08-.46-2.18-.86-3.22-1.38-2.86-1.42-4.45-4.08-5.77-6.74-2.6-5.24-5-10.59-7.25-16-2.38-5.75-4.56-11.58-6.69-17.43-2.12-5.82-4.1-11.69-6.05-17.56-.87-2.62-1.49-5.33-2.28-7.98-.82-2.72-1.78-5.39-2.55-8.12-1.16-4.12-2.21-8.27-3.3-12.41-.85-3.23-1.73-6.46-2.55-9.7-.57-2.23-1.05-4.48-1.6-6.71-.49-2-1.06-3.98-1.54-5.98-.48-2-1.01-4-1.3-6.04-.22-1.5-.9-2.39-2.24-3.06-3.39-1.68-6.68-3.54-9.55-6.06-3.74-3.29-4.99-7.49-4.11-12.26,.62-3.34,2.74-5.78,5.62-7.52,1.33-.8,2.73-1.51,4.07-2.24-5.45-26.59-11.09-52.93-20.19-78.53-1.51,1.16-1.74,2.96-2.45,4.47-.78,1.65-1.44,3.35-2.16,5.02-2.23,5.16-7.86,5.13-11.36,2.49-2.69-2.03-4.15-4.7-4.9-8.07-.93-4.18-.02-8.03,.99-11.95,1.83-7.08,4.69-13.76,7.88-20.31,.57-1.17,.56-2.22-.02-3.4-1.36-2.77-2.63-5.59-3.9-8.4-2.37-5.23,.27-10.1,4.13-12.95,3.2-2.35,6.87-3.32,10.81-3.01,1.82,.15,2.88-.4,3.86-1.99,4.23-6.86,9.01-13.33,14.39-19.35,6.1-6.82,12.81-12.91,20.88-17.36,3.67-2.02,7.42-3.84,11.58-4.6,3.13-.57,6.28-1.42,9.41-1.42,3.63,0,7.26,.74,10.88,1.25,3.72,.53,7.09,2.07,10.37,3.8,5.42,2.85,9.86,6.91,13.79,11.53,4.85,5.7,8.51,12.1,11.23,19.09,1.65,4.24,2.69,8.63,3.71,13.02,.68,2.93,1.07,5.98,1.15,8.99,.17,6.23,.24,12.48-.03,18.71-.16,3.71-1.04,7.38-1.64,11.06-.29,1.8-.6,3.61-1.07,5.37-1.41,5.21-2.62,10.51-4.43,15.58-3.36,9.44-7.57,18.5-12.49,27.27-4.14,7.39-8.65,14.52-13.63,21.34-6.2,8.5-13.27,16.27-20.95,23.45-2.53,2.36-5.19,4.59-7.78,6.89-.58,.51-1.12,1.06-1.96,1.86,3.96,1.85,7.62,3.7,11.39,5.28,4,1.68,8.07,3.19,12.17,4.61,3.61,1.25,7.29,2.28,10.93,3.43,3.92,1.24,7.82,2.53,11.74,3.75,2.56,.79,5.16,1.46,7.73,2.24,3.55,1.08,7.09,2.22,10.63,3.34,2.81,.89,5.61,1.79,8.41,2.69,2.78,.89,5.56,1.81,8.35,2.69,1.36,.42,2.73,.83,4.12,1.13,3.48,.76,6.99,1.44,10.47,2.19,2.24,.49,4.46,1.09,6.71,1.57,2.26,.48,4.54,.81,6.8,1.3,2.95,.64,5.9,1.32,8.82,2.11,.97,.26,1.91,.82,2.73,1.43,2.06,1.53,3.23,3.47,3.26,6.23,.04,3.46-.81,6.61-2.49,9.55-1.22,2.13-3.03,3.41-5.63,3.87-3.82,.68-7.42,.03-11.06-.91-1.46-.38-2.93-.71-4.4-1.02-3.57-.75-7.15-1.43-10.7-2.24-3.55-.81-7.07-1.72-10.6-2.61-4.24-1.08-8.48-2.14-12.7-3.3-2.98-.82-5.92-1.78-8.87-2.68-3.7-1.12-7.41-2.22-11.11-3.37-2.26-.7-4.51-1.44-6.75-2.21-3.61-1.23-7.21-2.46-10.8-3.75-4.39-1.57-8.75-3.2-13.13-4.79-2.89-1.05-5.78-2.1-8.69-3.09-.64-.22-1.37-.19-2.29-.3,.05,.88-.05,1.61,.14,2.25,1.87,6.31,3.8,12.6,5.69,18.91,1.11,3.72,2.12,7.47,3.28,11.18,1.09,3.46,2.31,6.87,3.49,10.3,1.1,3.21,2.14,6.45,3.33,9.63,1.89,5.04,3.78,10.09,5.86,15.06,3.27,7.79,6.76,15.49,10.02,23.27,.88,2.11,1.61,4.37,1.85,6.62,.15,1.46-.47,3.14-1.16,4.52-1.53,3.05-4.05,5.24-6.85,7.13-.83,.56-2.19,.04-2.64,1.33h-3.84Zm-31.06-160.28c1.09-.83,1.8-1.29,2.43-1.86,6.7-6.08,13.15-12.37,18.77-19.53,6.12-7.8,11.28-16.14,15.48-25.07,3.34-7.1,5.91-14.52,8.04-22.07,.54-1.9,.85-3.87,1.25-5.81,.4-1.94,.82-3.87,1.15-5.82,.59-3.44,1.49-6.88,1.61-10.34,.27-7.96,.75-15.94-.68-23.9-.75-4.22-1.43-8.39-3-12.41-2.5-6.46-6.49-11.72-12.23-15.54-3.59-2.39-7.68-3.63-12.04-3-4.19,.61-8.11,2.07-11.73,4.37-11.27,7.15-19.69,16.93-26.14,28.45-2.69,4.82-4.67,10.04-7.35,14.86-1.3,2.35-1.17,4.36-.39,6.65,1.26,3.73,2.49,7.48,3.68,11.23,.92,2.88,1.79,5.78,2.65,8.68,.82,2.74,1.64,5.48,2.39,8.23,.79,2.9,1.44,5.84,2.24,8.74,.82,2.97,1.79,5.89,2.6,8.86,.95,3.44,1.81,6.89,2.69,10.35,.89,3.47,1.76,6.95,2.61,10.43,.74,3.01,1.45,6.03,2.17,9.04,.57,2.38,1.14,4.77,1.72,7.15,.63,2.61,1.28,5.21,2.05,8.3Z"/>
  <path d="M740.16,157.87c-.22,.68-.58,1.35-.62,2.04-.2,3.85-1.11,7.58-2.28,11.18-2.39,7.32-5.95,13.94-12.7,18.28-3.31,2.13-6.89,3.37-10.86,3.73-7.96,.73-14.38-2.32-20.02-7.57-6.08-5.66-10.94-12.27-15.26-19.32-4.3-7.02-7.69-14.49-10.82-22.07-1.66-4.01-2.9-8.2-4.28-12.33-1.25-3.74-2.49-7.48-3.63-11.25-1.17-3.88-2.2-7.79-3.29-11.69-.75-2.68-1.47-5.37-2.27-8.04-.18-.59-.61-1.1-1.1-1.94-.62,.81-1.14,1.44-1.61,2.1-2.76,3.9-6.42,6.47-11.05,7.69-3.84,1.01-7.84-.43-9.45-3.74-1.21-2.48-1.12-5.25,.03-7.66,1.07-2.25,2.66-4.29,4.21-6.27,4.18-5.36,8.41-10.67,12.07-16.43,1.74-2.74,1.49-5.38,.85-8.2-.12-.54-.42-1.04-.5-1.59-.76-5.28-1.54-10.57-2.21-15.86-.95-7.53-2.04-15.04-2.65-22.6-.46-5.64-.33-11.33-.33-17.01,0-2.02,.81-3.88,2.04-5.52,1.16-1.54,2.69-2.44,4.59-2.7,.79-.11,1.59-.16,2.39-.18,4.8-.07,6.54,1.04,8.17,5.64,.84,2.37,1.39,4.85,1.89,7.31,.65,3.19,1.13,6.41,1.68,9.61,.05,.31,.08,.63,.11,.95,.39,4.21,.74,8.42,1.21,12.62,.15,1.32,.64,2.61,1,4.06,1.05-.33,1.35-1.18,1.79-1.85,4.5-6.79,9.06-13.53,14.43-19.66,2.51-2.86,5.16-5.62,8.8-7.05,3.27-1.29,6.36-.87,9.18,1.4,2.84,2.29,3.6,5.31,2.56,8.53-.63,1.96-1.97,3.84-3.41,5.37-7.41,7.9-12.66,17.29-18.38,26.35-3.23,5.13-6.14,10.46-9.33,15.61-.7,1.13-1,2.15-.77,3.35,.61,3.28,1.26,6.54,1.92,9.81,.31,1.56,.65,3.11,.99,4.65,.74,3.32,1.4,6.66,2.27,9.94,.99,3.75,2.1,7.46,3.26,11.16,1.12,3.56,2.32,7.11,3.58,10.62,1.57,4.37,3.31,8.69,4.83,13.08,1.97,5.71,4.58,11.12,7.28,16.5,3.05,6.08,6.59,11.87,11.35,16.79,2.15,2.22,4.66,3.98,8,3.39,1.29-.23,2.68-.69,3.69-1.47,3.39-2.63,4.96-6.32,5.93-10.44,1.68-7.13,1.01-14.32,.75-21.47-.16-4.44-1.01-8.85-1.57-13.28-.39-3.08-.71-6.17-1.27-9.22-.51-2.74-1.07-5.44-.99-8.27,.09-3.47,1.63-5.95,4.7-7.33,3.84-1.73,6.75-.48,8.36,2.51,1.54,2.88,2.42,5.98,3.02,9.18,.49,2.65,1.05,5.29,1.58,7.94,.05,.24,.1,.47,.13,.71,.42,4.21,.81,8.42,1.27,12.62,.17,1.57,.5,3.12,.76,4.68v22.56Z"/>
  <path d="M641.08,180.63c-1.36,.55-1.5,1.46-1.63,2.43-.58,4.17-1.26,8.34-1.75,12.52-.26,2.22-.23,4.47-.24,6.71-.02,3.2-.15,6.41,.1,9.6,.39,4.84,1.06,9.65,1.64,14.47,.36,3,.71,6.01,1.21,9,.41,2.42,1.03,4.8,1.57,7.2,.38,1.71,.78,3.42,1.17,5.12,.64,2.8,1.38,5.57,1.92,8.39,.78,4.09,.6,8.08-1.59,11.82-2.46,4.19-6.66,5.72-11.35,4.48-3.88-1.02-5.87-3.87-7.53-7.02-2.62-4.97-4.73-10.18-6.39-15.57-.59-1.92-1.42-3.76-2.57-5.59-.08,.67-.17,1.34-.22,2.01-.39,4.53-.64,9.07-1.19,13.58-.45,3.62-1.04,7.25-1.96,10.78-1.4,5.37-3.13,10.65-4.73,15.97-1.71,5.69-4.14,11.07-7.08,16.21-4.4,7.7-9.75,14.57-17.17,19.67-7.01,4.82-14.72,6.8-23.08,5.6-4.44-.64-8.42-2.76-11.91-5.63-2.19-1.8-4.24-3.76-6.54-5.8-.13,.63-.3,1.13-.31,1.64-.05,1.6,.03,3.2-.06,4.8-.34,5.5-.6,11.01-1.14,16.49-.43,4.35-1.05,8.71-1.9,13-1.09,5.54-2.47,11.03-3.76,16.53-.71,3.01-1.47,6.01-2.25,9-.4,1.53-.79,3.08-1.4,4.53-.79,1.89-.71,3.64,0,5.54,.89,2.36,1.56,4.81,2.28,7.23,.87,2.89,1.71,5.79,2.55,8.69,1.28,4.42,2.53,8.85,3.81,13.28,1.21,4.17,2.51,8.31,3.62,12.51,.87,3.29,1.52,6.64,2.25,9.97,.76,3.42,1.65,6.81,2.23,10.26,.76,4.56,1.2,9.18,1.92,13.75,1,6.36,1.12,12.76,.77,19.14-.48,8.71-2.01,17.26-6.08,25.11-3.32,6.4-8.08,11.55-14.65,14.71-3.3,1.59-6.88,2.61-10.6,2.15-6.43-.8-11.91-3.62-16.34-8.38-3.87-4.15-6.95-8.85-8.96-14.13-1.71-4.51-2.8-9.19-3.46-14.03-.72-5.35-.95-10.68-.61-16.02,.27-4.29,1.01-8.54,1.59-12.81,.36-2.67,.69-5.37,1.27-8,.72-3.23,1.68-6.41,2.58-9.61,.73-2.59,1.45-5.18,2.28-7.73,1.13-3.47,2.36-6.92,3.55-10.37,.84-2.47,1.65-4.95,2.51-7.42,1.17-3.34,2.37-6.68,3.55-10.02,1.12-3.2,2.23-6.41,3.35-9.61,.55-1.58,1.25-3.11,1.65-4.73,.28-1.12,.48-2.43,.17-3.49-1.05-3.58-2.38-7.07-3.53-10.62-1.17-3.61-2.25-7.24-3.39-10.86-.04-.12-.23-.19-.64-.52-.33,1.03-.76,1.93-.89,2.88-.21,1.5-.12,3.04-.32,4.55-1.05,7.91-2.7,15.64-6.98,22.56-2.27,3.66-5.21,6.64-9.29,8.09-2.88,1.02-5.86,1.78-9.1,.81-2.18-.65-4.44-1.01-6.55-1.98-4.31-1.97-7.57-5.08-10.33-8.86-4.47-6.13-7.45-12.97-9.8-20.13-1.1-3.36-2.21-6.72-3.43-10.45-.55,1.34-1.1,2.37-1.41,3.46-2.83,10-7.64,18.85-15.22,26.05-3.47,3.29-7.7,5.36-12.33,6.42-3.23,.74-6.11-.44-8.67-2.46-2.55-2.01-4.22-4.61-5.28-8.04-1.02,1.86-1.2,3.58-1.39,5.25-1.57,14.03-1.78,28.09-.49,42.15,.38,4.22,.84,8.43,1.45,12.62,.4,2.75,1.16,5.45,1.71,8.18,.44,2.18,.75,4.39,1.23,6.56,.44,2,1,3.98,1.53,5.96,.4,1.53,.83,3.06,1.24,4.59,.93,3.43,2,6.84,2.75,10.31,1.2,5.52,.52,10.45-4.26,14.38-4.2,3.46-8.75,5.92-14.16,6.68-2.37,.33-4.75,.84-7.12,.8-6.86-.12-13.01-2.59-18.67-6.32-1.97-1.3-3.78-2.83-5.67-4.24-.42-.32-.89-.57-1.63-1.02-.1,.85-.25,1.44-.21,2.02,.26,4.15,.69,8.29,.79,12.43,.08,3.66-.2,7.33-.34,11-.04,.96-.16,1.91-.27,2.86-.88,7.93-3.68,14.91-10.01,20.12-3.34,2.74-7.08,4.29-11.5,4.49-7.7,.35-13.87-2.64-19.2-7.9-5.71-5.63-9.91-12.28-13.27-19.49-2.14-4.59-3.92-9.32-5.28-14.21-1.04-3.73-2.2-7.42-2.84-11.26-.75-4.47-1.74-8.89-2.52-13.35-.34-1.95-.43-3.95-.97-6-.08,.22-.21,.44-.23,.66-.29,4.16-1.02,8.26-2.31,12.2-3.24,9.9-7.58,19.24-14.86,26.92-1.53,1.62-3.28,2.98-5.42,3.81-1.58,.61-3.06,.59-4.64-.03-6.02-2.37-6.39-9.16-3.34-13.53,2.76-3.96,5.51-7.93,8.14-11.98,1.64-2.52,2.59-5.34,3.46-8.24,.81-2.69,.78-5.33,.83-8.03,.07-3.39-1.74-5.75-4.43-7.37-1.94-1.16-4.16-.96-6.18,.14-3.8,2.07-6.5,5.29-8.89,8.78-3.05,4.46-5.1,9.38-6.79,14.52-1.92,5.82-3.14,11.67-2.79,17.81,.45,7.9,4.11,13.76,11.09,17.54,4.74,2.56,9.8,4.12,15.1,4.97,3.84,.62,7.71,1.13,11.51,1.96,6.64,1.45,13.31,2.98,19.1,6.81,5.42,3.59,9.24,8.4,11.32,14.68,1.7,5.13,1.63,10.31,.64,15.38-1.65,8.4-5.62,15.72-11.69,21.84-4.21,4.24-8.75,8.04-14.22,10.59-2.5,1.17-5.11,2.01-7.78,2.78-3.48,1.01-6.95,.91-10.44,.81-6.93-.2-13.15-2.6-18.75-6.64-1.28-.92-2.5-1.93-3.75-2.9-1.08-.84-1.69-.64-1.89,.7-.42,2.84-.66,5.72-1.22,8.53-.85,4.29-1.86,8.54-2.88,12.79-.68,2.84-1.34,5.71-2.3,8.46-1.26,3.64-2.7,7.23-4.24,10.77-2.97,6.77-6.81,13.02-11.7,18.57-4.53,5.14-9.8,9.27-16.3,11.86-5.41,2.15-10.94,2.39-16.44,1.57-5.05-.76-9.39-3.52-13.18-6.99-6.44-5.89-11.67-12.68-15.02-20.79-1.75-4.25-3.37-8.56-4.82-12.92-.69-2.09-.86-4.36-1.22-6.56-.58-3.53-1.48-7.05-1.59-10.6-.22-7.59-.04-15.18,.05-22.77,.02-1.5,.48-3,.54-4.5,.18-4.07,1.12-8.02,1.76-12.02,.67-4.2,1.89-8.22,3.31-12.18,2.39-6.66,5.7-12.77,10.87-17.78,3.45-3.33,7.55-5.06,12.21-5.22,3.29-.11,6.42,.85,9.02,3.16,3.15,2.81,5.24,6.29,6.96,10.07,1.75,3.84,2.73,7.92,3.71,11.97,.71,2.92,.99,5.96,1.25,8.97,.37,4.21,.76,8.44,.73,12.66-.03,3.9-.37,7.83-.99,11.69-.7,4.37-1.59,8.76-2.89,12.99-2.01,6.58-4.33,13.07-7.61,19.17-2.04,3.8-3.97,7.67-6.08,11.78,.82,1.76,2.71,2.84,4.43,4.04,2,1.39,4.38,1.36,6.67,1.37,4.11,.02,7.66-1.58,10.93-4.01,6.48-4.82,10.94-11.14,13.91-18.56,1.35-3.36,2.72-6.74,3.62-10.24,1.03-3.99,1.66-8.09,2.23-12.17,.6-4.34,1.07-8.71,1.34-13.09,.31-4.94,.33-9.91,.48-14.86,.1-3.27-.17-6.58,1.12-9.71,1.04-2.55,2.51-4.52,5.6-4.75,.96-.07,1.89-.7,2.8-1.12,2.31-1.07,4-.74,5.4,1.3,.61,.89,1.07,1.95,1.35,3,2.25,8.49,6.78,15.44,14,20.49,1.91,1.34,4.1,2.33,6.56,2.53,1.66,.13,3.31,.78,4.94,.69,8.6-.49,15.61-3.88,19.92-11.67,2.2-3.98,2.1-8.06-.14-12.07-2.25-4.02-5.74-6.41-9.98-7.96-4.75-1.74-9.65-2.64-14.65-3.29-4.47-.59-8.86-1.74-13.29-2.66-4.67-.96-9.04-2.74-13.18-5.07-6.33-3.56-11.15-8.59-13.97-15.29-1.25-2.96-2.04-6.12-2.33-9.42-.4-4.57-.21-9.11,.23-13.64,.25-2.58,1.01-5.12,1.64-7.66,.59-2.37,1.31-4.72,2.01-7.06,1.7-5.74,4.28-11.08,7.27-16.24,5.18-8.92,11.82-16.58,19.91-22.99,3.77-2.99,7.89-5.34,12.58-6.48,4.18-1.02,8.06-.02,11.63,2.3,4.04,2.63,6.77,6.38,8.7,10.69,1.12,2.5,1.82,5.18,2.87,8.25,.16-1.5,.26-2.58,.4-3.66,.66-5.14,1.1-10.33,2.07-15.41,.54-2.81,1.77-5.53,3.7-7.84,2.24-2.68,6.82-4.25,10.57-2.44,2.15,1.04,2.93,3.16,3.43,5.38,1.06,4.72,.77,9.53,1.07,14.31,.39,6.37,1.02,12.73,1.67,19.08,.33,3.25,.77,6.51,1.43,9.7,.75,3.65,1.72,7.27,2.74,10.86,.95,3.34,1.99,6.66,3.17,9.93,1.88,5.23,4.31,10.19,7.98,14.45,.42,.48,.87,.94,1.37,1.34,2.86,2.29,4.61,2.17,7.28-.91,2.32-2.68,3.15-6.1,3.34-9.55,.35-6.55,.48-13.1-.66-19.62-.9-5.1-1.54-10.25-2.55-15.33-.63-3.18-1.65-6.29-2.6-9.39-1.32-4.3-2.68-8.59-4.15-12.83-.96-2.76-2.1-5.46-3.24-8.16-1.3-3.09-2.17-6.29-3-9.54-1.13-4.43-1.3-8.86-.76-13.31,.45-3.68,2.12-6.9,5.66-8.57,4.66-2.19,10.39-1.22,13.22,4.27,1.7,3.29,3.16,6.69,4.16,10.29,1.12,4.05,2.5,8.02,3.66,12.06,.87,3.06,1.48,6.2,2.36,9.26,2.18,7.62,4.72,15.1,9.88,21.31,3.97,4.79,8.97,8.1,14.94,10.04,2.26,.73,4.49,.92,7.17,1.2-.1-.96-.02-1.76-.29-2.4-2.71-6.55-5.57-13.04-8.21-19.62-2.27-5.66-4.39-11.38-6.42-17.13-1.42-4.01-2.68-8.08-3.84-12.18-1.23-4.36-2.31-8.76-3.34-13.17-1-4.26-1.86-8.56-2.78-12.84-.03-.16-.07-.31-.1-.47-1.21-9.12-2.07-18.27-1.03-27.46,.36-3.14,1.47-6.17,3.39-8.78,1.86-2.53,4.59-3.74,7.54-3.97,2.22-.17,5.24,.94,6.1,3.99,.82,2.9,1.29,5.9,1.82,8.87,.18,1.01,.05,2.08,.12,3.11,.37,5.82,.46,11.67,1.23,17.44,.62,4.67,1.24,9.43,3.31,14.39,.18-1.04,.33-1.59,.37-2.15,.39-5.82,.58-11.65,1.19-17.45,.67-6.34,1.69-12.65,2.62-18.97,.74-5.05,1.53-10.1,2.4-15.13,.42-2.42,1.09-4.79,1.65-7.18,.36-1.54,.77-3.08,1.09-4.63,1.22-5.81,3.02-11.45,5.11-16.99,1.15-3.05,3.43-4.66,6.74-4.7,2.09-.03,4.14,.06,6.1,.94,1.79,.81,3.05,1.97,3.26,4.02,.42,4.01,.12,7.96-.62,11.92-1.42,7.57-2.18,15.21-1.33,22.9,.19,1.67,.93,3.41,1.86,4.83,1.61,2.46,3.66,2.74,5.84,.81,1.57-1.39,3-3.05,4.07-4.84,2.69-4.49,4.68-9.31,6.16-14.34,1.32-4.47,2.46-9,3.99-13.4,.81-2.32,1.63-4.84,4.26-6.05,.48-.22,.76-1.32,.77-2.02,.06-2.64-.07-5.28-.07-7.92,0-3.36-.1-6.73,.18-10.07,.34-3.96,1.01-7.89,1.59-11.82,.35-2.36,.72-4.71,1.24-7.04,.59-2.62,1.2-5.26,2.09-7.79,1.15-3.27,2.43-6.52,3.95-9.64,2.83-5.81,6.47-11.04,11.89-14.81,4.36-3.03,9.22-4.19,14.43-3.53,2.07,.26,3.99,1.29,5.76,2.56,4.46,3.19,7.36,7.61,9.74,12.39,1.23,2.46,2.1,5.09,3.11,7.66,.35,.9,.91,1.41,1.93,1.51,1.58,.16,3.16,.4,4.73,.67,1.88,.31,2.99,1.42,3.24,3.27,.39,2.92,.67,5.86,1.13,8.76,.42,2.66,1.03,5.3,1.54,7.95,.38,1.95,.75,3.9,1.13,5.85,.77,3.99,1.47,8.01,2.33,11.98,.81,3.72,1.8,7.41,2.73,11.1,.75,2.99,1.44,6,2.28,8.96,.77,2.73,1.68,5.42,2.54,8.13,.5,1.57,1.03,3.14,1.97,4.73,.42-1.62,.95-3.22,1.25-4.86,.75-4.09,1.61-8.17,2.03-12.29,.58-5.71,1.57-11.41,1.25-17.19-.43-7.74-.66-15.5-1.26-23.22-.36-4.61-1.12-9.21-2.03-13.74-.47-2.36-1.07-4.67-.86-7.08,.08-.92,.34-1.88,.72-2.72,.58-1.27,.8-2.5,.71-3.92-.52-8.23-.67-16.46,.31-24.68,.48-4.04,.78-8.12,1.5-12.12,.66-3.65,1.8-7.22,2.68-10.83,1.05-4.33,2.84-8.36,5-12.23,2.14-3.82,4.67-7.33,8.09-10.11,4.73-3.84,10.05-5.41,16-3.5,3.26,1.05,5.65,3.41,7.55,6.18,3.26,4.76,5.3,10.05,6.47,15.69,.56,2.73,1.48,5.42,1.76,8.18,.65,6.35,1.56,12.72,.8,19.14-.5,4.2-.87,8.43-1.63,12.58-.64,3.51-1.67,6.96-2.69,10.38-.93,3.09-2.06,6.12-3.16,9.16-2.22,6.12-5.27,11.85-8.42,17.53-.49,.88-1.05,1.73-1.67,2.73,2.1,2.59,4.43,4.76,7.89,5.32,5.34,.86,10.03-.58,14.35-3.79,5.07-3.76,8.85-8.53,11.79-14.05,2.89-5.42,4.95-11.14,6.19-17.14,.76-3.66,1.19-7.4,2.03-11.04,.98-4.26,.85-8.58,1.06-12.88,.32-6.54,.43-13.1,.79-19.64,.09-1.7,.52-3.52,1.3-5.02,1.03-1.99,2.64-3.6,5.2-3.61,.3,0,.6-.16,1.14-.32-.26-1.19-.49-2.33-.77-3.45-.54-2.16-1.13-4.3-1.67-6.46-.46-1.84-.87-3.7-1.31-5.55-.55-2.31-1.11-4.62-1.65-6.93-.4-1.7-.83-3.39-1.14-5.11-.45-2.5-.8-5.02-1.2-7.53-.49-3.06-1.05-6.12-1.47-9.19-.34-2.46-.52-4.93,.23-7.37,.43-1.43,.78-2.88,1.21-4.3,.85-2.82,3.26-4.02,5.73-4.49,5.26-1,9.48,1.1,11.31,6.64,1.18,3.58,1.65,7.28,2.1,11,.38,3.16,1.1,6.29,1.71,9.42,.43,2.24,.92,4.47,1.38,6.71l.6-.02c.08-.74,.17-1.49,.23-2.23,.41-5.17,.73-10.35,1.25-15.51,.51-4.99,1.11-9.97,1.9-14.92,.7-4.38,1.63-8.73,2.65-13.05,.94-4.02,1.93-8.04,3.26-11.94,1.45-4.26,3.25-8.39,6.77-11.53,1.36-1.21,2.9-1.98,4.53-2.48,2.01-.62,3.89,.21,5.6,1.33,3.65,2.38,5.44,5.94,5.92,10.1,.52,4.6,.67,9.25,1.01,13.87,.45,6.06,.73,12.14,1.46,18.16,.56,4.64,1.66,9.22,2.6,13.81,.65,3.18,1.28,6.39,2.24,9.48,1.13,3.61,2.44,7.19,3.97,10.65,2.89,6.54,6.57,12.61,11.35,17.97,4.14,4.65,9.17,8.06,15,10.16,2.74,.99,5.66,1.46,8.47,2.24,2.06,.57,4.14,1.18,5.39,3.15,.21,.33,.55,.66,.59,1.02,.48,3.72,.45,7.27-2.66,10.12-4.2,3.83-9.09,5-14.6,4.2-5.49-.79-10.58-2.63-15.33-5.49-6.04-3.62-10.92-8.48-15.27-13.93-4.42-5.53-7.87-11.65-10.61-18.15-1.72-4.08-3.13-8.29-4.52-12.5-1.05-3.16-1.9-6.4-2.78-9.62-.27-.99-.32-2.04-.51-3.31Zm-151.85,148.93c-.29-.15-.43-.27-.57-.29-.63-.08-1.27-.12-1.9-.2-2.13-.26-2.93-1.05-3.63-3.11-.44-1.27-.47-2.48-.19-3.76,.17-.78,.25-1.58,.29-2.38,.54-9.46-.41-18.78-2.9-27.91-.59-2.17-1.57-4.27-3.13-6.05-2.11-2.41-5.07-2.43-6.97-.15-.25,.3-.54,.56-.8,.86-2.96,3.44-4.07,7.73-4.82,11.97-.99,5.57-1.45,11.25-1.85,16.9-.6,8.49,.2,16.92,1.43,25.32,.41,2.84,.89,5.67,1.41,8.49,.3,1.64,.65,3.27,1.13,4.86,1.16,3.78,2.38,7.53,3.63,11.28,1.35,4.06,3.12,7.95,5.47,11.52,1.22,1.85,2.75,3.48,4.73,4.62,1.37,.79,2.81,.82,4.11,.22,1.49-.69,2.74-1.81,3.64-3.28,1.88-3.05,2.69-6.49,3.02-9.94,.42-4.36,.42-8.78,.38-13.18-.05-5.91-.12-11.82-1.17-17.67-.49-2.73-.88-5.49-1.3-8.13Zm31.01,87.7c-.2-.01-.41-.02-.61-.03-.44,.91-.89,1.82-1.3,2.75-2.1,4.79-3.89,9.69-5.13,14.76-1.32,5.41-2.88,10.81-3.64,16.31-.85,6.16-1.29,12.38-1.27,18.64,.03,7.17,.84,14.15,3.23,20.91,.98,2.77,2.14,5.46,3.88,7.86,1.65,2.29,4,3.48,6.69,3.31,2.11-.14,3.95-1.35,5.42-3.06,3.21-3.74,4.17-8.33,4.71-12.95,.78-6.7-.15-13.39-1-20.05-.27-2.12-.74-4.22-1.16-6.33-.49-2.41-1.06-4.8-1.53-7.21-.46-2.33-.77-4.7-1.3-7.02-.84-3.72-1.79-7.41-2.72-11.11-1.41-5.6-2.84-11.19-4.26-16.79Zm38.07-173.26c.31-5.28,.09-10.55-1.1-15.7-.44-1.9-1.05-3.92-2.16-5.47-2.4-3.37-3.89-3.43-6.55-.43-1.58,1.78-2.54,4.01-3.15,6.33-.44,1.69-.85,3.39-1.18,5.1-.6,3.12-1.45,6.23-1.63,9.37-.45,8.05-.13,16.06,1.62,24.02,.96,4.35,2.03,8.65,3.34,12.89,.14,.46,.61,.81,.93,1.21,.37-.34,.88-.61,1.09-1.03,1.93-3.71,3.59-7.53,5.14-11.43,2.08-5.25,2.86-10.73,3.58-16.22,.37-2.83,.06-5.75,.06-8.62ZM182.94,626.57c3.26-6.56,6.42-12.74,7.79-19.68,.77-3.9,1.67-7.76,1.77-11.75,.18-7.1,.45-14.22-1.1-21.21-.56-2.53-1.21-5.1-3.03-7.13-1.93-2.14-3.12-2.2-5.13-.13-.75,.78-1.41,1.69-1.94,2.63-1.56,2.78-2.54,5.76-3.01,8.92-.49,3.3-1.43,6.56-1.62,9.87-.28,4.7-.19,9.43,0,14.14,.13,2.93,.67,5.86,1.19,8.76,.44,2.49,1.05,4.96,1.68,7.41,.63,2.45,1.34,4.88,2.1,7.29,.1,.32,.7,.49,1.3,.89Z"/>
  <path d="M394.61,193.59c-.35,1.29-.87,2.56-1.01,3.87-1.21,11.07-1.37,22.19-.94,33.31,.18,4.55,.52,9.11,1.03,13.63,.48,4.27,1.15,8.52,1.97,12.73,.7,3.65,1.74,7.23,2.6,10.85,.64,2.7,1.44,5.38,1.83,8.12,.65,4.63-.6,8.68-4.53,11.56-2.82,2.07-5.95,2.02-9-.29-2.34-1.77-3.73-4.25-5.1-6.72-2.85-5.13-5.19-10.49-7.13-16.04-1.46-4.16-3.22-8.22-4.57-12.41-1.63-5.07-2.99-10.23-4.44-15.36-.77-2.74-1.49-5.49-2.35-8.69-.27,.83-.44,1.28-.57,1.74-1.09,3.89-.66,7.95-1.24,11.88-.66,4.39-.63,8.77-.47,13.15,.14,3.99,.44,7.98,.91,11.94,.49,4.1,1.02,8.23,1.96,12.24,1.54,6.57,3.11,13.15,5.49,19.49,1.39,3.69,2.99,7.32,4.09,11.1,.61,2.09,1.57,4.1,1.5,6.45-.1,3.13-1.19,5.72-3.37,7.82-3.05,2.96-6.5,5.22-10.7,6.37-3.9,1.06-7.75,1.34-11.78,1.09-7.95-.49-14.08-4.29-19.42-9.81-1.45-1.5-2.98-2.94-4.7-4.63-.47,1.53-.17,2.81,.12,4.08,.14,.62,.41,1.21,.51,1.83,1.21,7.04,1.44,14.13,1.14,21.25-.21,5.05-1.52,9.82-3.86,14.32-2.79,5.36-7.04,9.2-12.61,11.29-3.89,1.46-7.97,1.66-12.21,.72-5.62-1.25-10.27-3.95-14.38-7.81-.17-.16-.39-.26-.58-.37-1.24,.17-1.22,1.18-1.32,2.01-.55,4.59-1.79,9.01-2.89,13.48-1.74,7.01-4.09,13.78-7.17,20.29-3.99,8.42-9.03,16.11-16.14,22.28-3.74,3.25-7.9,5.85-12.58,7.47-4.92,1.71-10.08,1.89-15.12,1.05-4.05-.67-7.77-2.62-11.01-5.24-8.18-6.6-14.09-14.89-18.17-24.54-1.79-4.24-3.14-8.59-4.18-13.08-.92-3.96-1.36-7.97-1.99-11.97-1.2-7.66-.8-15.32-.58-22.97,.13-4.59,.99-9.17,1.58-13.75,.34-2.6,.66-5.21,1.25-7.76,.69-3,1.46-6,2.55-8.87,1.34-3.55,2.81-7.1,4.64-10.42,2.29-4.15,5.21-7.88,9.16-10.68,2.88-2.04,6.15-3.07,9.55-3.19,4.19-.15,7.91,1.47,10.72,4.69,2.96,3.38,5.13,7.24,6.47,11.54,.94,3.02,1.95,6.03,2.63,9.11,.63,2.86,.97,5.81,1.24,8.73,.38,4.05,.84,8.12,.77,12.17-.08,4.76-.51,9.54-1.58,14.22-.51,2.24-.71,4.56-1.22,6.8-.6,2.62-1.18,5.27-2.13,7.78-1.76,4.67-3.65,9.3-5.74,13.83-2.1,4.57-4.51,9-6.92,13.76,1.95,2.44,4.31,4.58,7.86,5.12,7.76,1.18,13.58-2.47,18.63-7.65,4.7-4.81,8.13-10.53,10.34-16.9,1.4-4.02,2.68-8.1,3.75-12.22,.67-2.6,.95-5.32,1.25-8,.57-4.99,.94-10,1.56-14.98,.28-2.23-.06-4.25-.97-6.23-1.88-4.09-3.47-8.28-4.67-12.62-1.26-4.52-2.63-9.01-3.77-13.56-.62-2.47-.91-5.02-1.25-7.55-.59-4.34-1.25-8.68-1.61-13.05-.4-4.93-.68-9.89,.29-14.81,.14-.7,.17-1.43,.2-2.15,.37-6.97,1.85-13.7,4.03-20.33,2.13-6.46,5.26-12.29,9.65-17.48,3.8-4.49,8.35-8.05,14.08-9.27,5.18-1.1,10.53-1.1,14.8,3.11,2.07,2.04,3.25,4.62,4.5,7.16,.52,1.05,.92,2.16,1.3,3.07,1.34,.42,2.46,.83,3.61,1.13,3.34,.85,5.05,3.28,6.27,6.25,1.42,3.46,2.07,7.12,3.07,10.7,1.34,4.81,2.9,9.58,4.6,14.28,1.58,4.36,3.34,8.67,5.28,12.89,3.04,6.62,6.48,13.03,11.43,18.47,2.76,3.03,5.93,5.41,10.23,6.25,.04-.43,.25-.93,.1-1.28-2.85-6.69-5.91-13.3-8.58-20.05-2-5.05-3.54-10.28-5.23-15.45-1.63-4.97-3.28-9.94-4.75-14.96-.94-3.2-1.56-6.49-2.34-9.73-.87-3.62-1.83-7.21-2.62-10.85-.54-2.48-.84-5.01-1.26-7.52-.52-3.14-1.04-6.27-1.57-9.41-.05-.31-.16-.62-.18-.94-.32-5.82-1.02-11.66-.1-17.47,.49-3.07,1.92-5.76,4.83-7.24,3.34-1.7,7.26-.67,8.93,3.19,1.22,2.82,1.83,5.87,2.22,8.96,.33,2.59,1.05,5.12,1.56,7.69,.46,2.34,.84,4.7,1.3,7.04,1.14,5.85,2.54,11.63,4.43,17.86,.33-.84,.48-1.21,.62-1.58,.03-.07,.01-.16,.02-.24,.38-5.49,.64-11,1.17-16.48,.34-3.55,1.07-7.07,1.62-10.6,.4-2.59,.73-5.2,1.22-7.77,.45-2.33,1.07-4.63,1.64-6.93,.73-2.93,1.36-5.88,2.27-8.75,1.22-3.84,2.47-7.72,5.09-10.92,2.4-2.93,7.62-4.39,10.87-2.89,2.63,1.21,3.45,3.74,4.06,6.34,.99,4.24,.78,8.57,1.14,12.86,.31,3.72,1.03,7.4,1.58,11.1,.2,1.37,.41,2.74,.62,4.1,.18,0,.35,0,.53,0,.21-.82,.49-1.64,.6-2.48,.2-1.42,.29-2.86,.44-4.3,.66-6.44,1.29-12.88,1.98-19.31,.37-3.41,.75-6.81,1.29-10.19,.41-2.58,1.08-5.12,1.61-7.68,.44-2.09,.72-4.23,1.29-6.28,1.81-6.48,3.66-12.96,7.71-18.52,1.98-2.73,4.49-4.61,7.75-5.53,3.54-1,7.86,.94,9.4,4.36,1.28,2.85,1.98,5.86,1.97,8.99-.02,6.96-.11,13.92-.11,20.88,0,3.76-.04,7.53,.27,11.27,.35,4.2,.97,8.39,1.67,12.55,.6,3.53,1.28,7.07,2.28,10.5,2.56,8.77,6.47,16.76,14.06,22.41,2.85,2.12,5.83,3.74,9.53,3.86,2.79,.09,5.57,.52,8.35,.8,3.22,.32,5.84,2.97,6.24,6.2,.81,6.53-1.65,10.17-7.51,12.44-3.01,1.16-6.42,1.85-9.85,.71-1.94-.64-4.04-.78-6.05-1.23-4.46-1-8.37-3.14-12.04-5.81-6.93-5.05-11.98-11.61-15.86-19.19-2.13-4.17-3.76-8.51-5.05-13.01-1.48-5.14-2.67-10.29-2.93-15.64-.01-.3-.14-.59-.22-.89-.17-.03-.34-.06-.5-.08Zm-98.45,58.64c-3.83-1.85-7.45-1.44-10.85,.43-5.08,2.8-7.29,7.74-8.81,12.99-.7,2.42-.77,5.02-1.33,7.49-.99,4.44-.7,8.91-.35,13.36,.3,3.8,.99,7.56,1.53,11.34,.38,2.67,.62,5.38,1.26,7.99,1.09,4.44,2.43,8.82,3.69,13.22,1.61,5.67,4.12,10.96,7.27,15.9,2.33,3.67,4.93,7.23,8.8,9.52,1.42,.84,2.98,1.77,4.66,1.34,2.07-.53,3.97-1.52,5.28-3.38,2.09-2.94,3.08-6.2,3.3-9.79,.4-6.73-.13-13.39-1.32-20.01-.35-1.96-.72-3.92-1.18-5.85-.88-3.72-1.8-7.42-2.75-11.12-.72-2.83-1.47-5.66-2.29-8.47-.79-2.72-1.76-5.4-2.51-8.13-1.29-4.65-2.59-9.31-3.65-14.01-.64-2.86-.94-5.81-1.2-8.74-.11-1.24,.26-2.52,.45-4.07Zm-69.72,92.68c.11-4.55,.09-9.08-.81-13.59-.49-2.45-1.02-4.84-2.26-6.98-.58-.99-1.53-1.78-2.39-2.57-.88-.82-1.7-.67-2.75,.03-2.48,1.65-3.63,4.18-4.48,6.76-1.89,5.69-2.94,11.57-3.25,17.57-.43,8.35,.34,16.6,2.16,24.74,.79,3.55,1.9,7.02,2.92,10.51,.1,.35,.6,.8,.92,.81,.32,0,.78-.43,.94-.78,1.47-3.06,2.88-6.14,4.31-9.22,2.86-6.15,3.97-12.73,4.65-19.38,.27-2.61,.04-5.27,.04-7.91Z"/>
  <path d="M117.99,251.93c-.76,.69-1.27,1.04-1.64,1.5-4.57,5.86-9.18,11.68-13.65,17.62-4.75,6.31-9.48,12.63-13.97,19.12-5.79,8.37-11.44,16.85-16.93,25.42-2,3.12-3.72,6.42-6.46,8.99-3.22,3.02-9.49,3.85-13.19,1.7-2.95-1.71-4.52-4.3-4.7-7.77-.22-4.16,1.37-7.83,3.44-11.16,5.36-8.66,10.9-17.21,16.59-25.67,5.86-8.71,11.86-17.33,18-25.85,5.4-7.48,10.98-14.84,16.67-22.11,6.28-8.03,12.72-15.94,19.18-23.83,12.32-15.06,25.53-29.33,39.19-43.17,8.51-8.62,17.18-17.1,26.58-24.78,2.94-2.4,5.91-4.8,9.51-6.14,5.07-1.9,9.23-.25,11.42,4.63,.99,2.21,.74,4.85-.15,7.26-1.45,3.95-4.11,7.11-6.94,10.07-7.21,7.53-14.54,14.94-21.81,22.41-10.1,10.39-20.34,20.66-30.21,31.26-5.92,6.35-11.72,12.84-16.79,19.93-.26,.37-.46,.79-.9,1.57,1.04,.07,1.78,.18,2.52,.15,2.07-.1,3.56,1.02,4.51,2.59,.98,1.61,1.7,3.43,2.22,5.24,1.2,4.13,1.71,8.4,2.17,12.68,.34,3.07,1.1,6.09,1.6,9.15,.46,2.83,.75,5.68,1.21,8.51,.48,2.97,1.07,5.93,1.62,8.9,.36,1.95,.74,3.9,1.09,5.86,.79,4.31,1.5,8.63,2.37,12.92,.82,4.06,1.81,8.08,2.71,12.13,.36,1.63,.7,3.26,1.03,4.89,.43,2.1,.8,4.21,1.27,6.3,.45,2.01,1,3.99,1.49,5.99,.45,1.84,.88,3.69,1.33,5.54,.55,2.23,1.13,4.45,1.69,6.67,.79,3.16,1.54,6.33,2.37,9.48,.9,3.38,1.88,6.74,2.81,10.11,.42,1.53,.77,3.08,1.19,4.61,.86,3.12,1.75,6.23,2.62,9.35,.81,2.89,1.58,5.79,2.41,8.67,.75,2.59,1.55,5.16,2.35,7.73,.87,2.81,1.75,5.63,2.66,8.43,1.22,3.75,2.5,7.47,3.73,11.22,1.41,4.27,2.75,8.55,4.22,12.8,1.09,3.15,2.33,6.25,3.53,9.36,1.82,4.71,3.59,9.44,5.51,14.11,1.95,4.75,3.95,9.49,6.13,14.15,2.81,5.99,5.84,11.89,8.73,17.84,.9,1.85,1.78,3.72,2.44,5.65,2.03,5.87-1.04,10.27-6.38,12.22-7.33,2.68-15.47,.12-20.2-7.03-3.89-5.89-6.97-12.18-9.7-18.64-2.37-5.59-4.67-11.22-6.79-16.91-1.93-5.19-3.56-10.49-5.34-15.73-1.24-3.66-2.59-7.3-3.76-10.98-1.15-3.61-2.12-7.27-3.22-10.89-1.42-4.7-2.92-9.38-4.32-14.09-1.31-4.41-2.5-8.86-3.79-13.28-1.19-4.09-2.5-8.15-3.62-12.26-.86-3.13-1.47-6.33-2.27-9.48-.76-3.01-1.66-5.98-2.42-8.98-.95-3.78-1.79-7.58-2.7-11.37-.87-3.62-1.79-7.22-2.65-10.85-.38-1.62-.7-3.26-1-4.9-.44-2.42-.78-4.86-1.25-7.27-.47-2.41-1.06-4.8-1.57-7.2-.41-1.94-.79-3.89-1.14-5.85-.79-4.4-1.51-8.81-2.34-13.2-.51-2.74-1.22-5.44-1.74-8.18-.47-2.5-.76-5.03-1.21-7.54-.49-2.73-1.08-5.44-1.62-8.16-.37-1.87-.74-3.74-1.06-5.62-.44-2.58-.83-5.18-1.27-7.76-.43-2.49-.9-4.98-1.45-8.05Z"/>
  <path class="cls-1" d="M61.57,640.84c-.76-3.09-1.41-5.7-2.05-8.3-.58-2.38-1.15-4.77-1.72-7.15-.72-3.01-1.43-6.03-2.17-9.04-.86-3.48-1.73-6.96-2.61-10.43-.88-3.45-1.75-6.91-2.69-10.35-.82-2.97-1.79-5.89-2.6-8.86-.8-2.9-1.46-5.84-2.24-8.74-.75-2.76-1.57-5.49-2.39-8.23-.86-2.9-1.73-5.79-2.65-8.68-1.2-3.75-2.42-7.5-3.68-11.23-.77-2.29-.91-4.3,.39-6.65,2.68-4.83,4.65-10.05,7.35-14.86,6.44-11.53,14.87-21.3,26.14-28.45,3.62-2.3,7.54-3.77,11.73-4.37,4.36-.63,8.45,.61,12.04,3,5.73,3.81,9.72,9.08,12.23,15.54,1.56,4.03,2.24,8.2,3,12.41,1.42,7.96,.95,15.93,.68,23.9-.12,3.46-1.02,6.9-1.61,10.34-.33,1.95-.75,3.89-1.15,5.82-.4,1.94-.72,3.91-1.25,5.81-2.14,7.55-4.7,14.97-8.04,22.07-4.2,8.93-9.36,17.27-15.48,25.07-5.62,7.16-12.07,13.45-18.77,19.53-.63,.57-1.34,1.03-2.43,1.86Z"/>
  <path class="cls-1" d="M489.22,329.56c.42,2.64,.81,5.4,1.3,8.13,1.05,5.85,1.12,11.76,1.17,17.67,.04,4.39,.04,8.81-.38,13.18-.33,3.45-1.14,6.88-3.02,9.94-.9,1.47-2.15,2.59-3.64,3.28-1.3,.6-2.74,.57-4.11-.22-1.98-1.14-3.51-2.77-4.73-4.62-2.35-3.57-4.13-7.45-5.47-11.52-1.24-3.75-2.47-7.5-3.63-11.28-.49-1.59-.83-3.23-1.13-4.86-.52-2.82-.99-5.65-1.41-8.49-1.22-8.4-2.02-16.84-1.43-25.32,.4-5.65,.86-11.33,1.85-16.9,.75-4.24,1.86-8.53,4.82-11.97,.25-.3,.55-.56,.8-.86,1.9-2.28,4.86-2.25,6.97,.15,1.56,1.78,2.53,3.88,3.13,6.05,2.49,9.13,3.45,18.45,2.9,27.91-.05,.8-.12,1.6-.29,2.38-.28,1.28-.25,2.48,.19,3.76,.71,2.06,1.5,2.85,3.63,3.11,.63,.08,1.27,.12,1.9,.2,.15,.02,.28,.14,.57,.29Z"/>
  <path class="cls-1" d="M520.24,417.26c1.42,5.6,2.85,11.19,4.26,16.79,.93,3.7,1.88,7.39,2.72,11.11,.53,2.32,.84,4.69,1.3,7.02,.48,2.41,1.05,4.8,1.53,7.21,.42,2.1,.89,4.2,1.16,6.33,.85,6.66,1.78,13.35,1,20.05-.54,4.62-1.5,9.21-4.71,12.95-1.47,1.71-3.3,2.92-5.42,3.06-2.69,.17-5.04-1.02-6.69-3.31-1.73-2.4-2.9-5.09-3.88-7.86-2.39-6.76-3.2-13.74-3.23-20.91-.03-6.26,.42-12.49,1.27-18.64,.76-5.5,2.32-10.9,3.64-16.31,1.24-5.08,3.03-9.98,5.13-14.76,.41-.93,.87-1.83,1.3-2.75,.2,.01,.41,.02,.61,.03Z"/>
  <path class="cls-1" d="M558.3,244c0,2.88,.3,5.79-.06,8.62-.71,5.49-1.49,10.97-3.58,16.22-1.55,3.9-3.21,7.72-5.14,11.43-.22,.42-.72,.69-1.09,1.03-.32-.4-.79-.75-.93-1.21-1.31-4.25-2.38-8.54-3.34-12.89-1.76-7.96-2.08-15.96-1.62-24.02,.18-3.14,1.03-6.25,1.63-9.37,.33-1.71,.73-3.41,1.18-5.1,.61-2.32,1.57-4.54,3.15-6.33,2.65-3,4.15-2.93,6.55,.43,1.11,1.55,1.72,3.57,2.16,5.47,1.2,5.15,1.41,10.43,1.1,15.7Z"/>
  <path class="cls-1" d="M182.94,626.57c-.61-.4-1.2-.57-1.3-.89-.76-2.41-1.48-4.84-2.1-7.29-.63-2.45-1.24-4.92-1.68-7.41-.51-2.9-1.06-5.83-1.19-8.76-.2-4.71-.29-9.44,0-14.14,.19-3.31,1.13-6.57,1.62-9.87,.47-3.17,1.45-6.14,3.01-8.92,.53-.94,1.18-1.86,1.94-2.63,2.01-2.07,3.2-2.01,5.13,.13,1.83,2.03,2.48,4.6,3.03,7.13,1.54,7,1.27,14.11,1.1,21.21-.1,4-1,7.86-1.77,11.75-1.37,6.94-4.53,13.12-7.79,19.68Z"/>
  <path class="cls-1" d="M296.17,252.23c-.19,1.55-.56,2.84-.45,4.07,.26,2.93,.55,5.88,1.2,8.74,1.06,4.71,2.36,9.36,3.65,14.01,.76,2.73,1.72,5.41,2.51,8.13,.82,2.81,1.56,5.64,2.29,8.47,.95,3.7,1.87,7.4,2.75,11.12,.46,1.94,.83,3.89,1.18,5.85,1.19,6.62,1.73,13.27,1.32,20.01-.22,3.59-1.21,6.85-3.3,9.79-1.32,1.85-3.22,2.84-5.28,3.38-1.68,.43-3.24-.5-4.66-1.34-3.87-2.29-6.46-5.85-8.8-9.52-3.14-4.94-5.65-10.23-7.27-15.9-1.25-4.4-2.6-8.78-3.69-13.22-.64-2.61-.88-5.32-1.26-7.99-.54-3.78-1.23-7.54-1.53-11.34-.35-4.45-.64-8.92,.35-13.36,.55-2.47,.62-5.07,1.33-7.49,1.52-5.24,3.73-10.19,8.81-12.99,3.4-1.87,7.02-2.28,10.85-.43Z"/>
  <path class="cls-1" d="M226.45,344.91c0,2.64,.22,5.3-.04,7.91-.68,6.66-1.79,13.24-4.65,19.38-1.43,3.08-2.85,6.16-4.31,9.22-.17,.35-.63,.79-.94,.78-.32,0-.81-.46-.92-.81-1.02-3.49-2.13-6.97-2.92-10.51-1.82-8.14-2.59-16.39-2.16-24.74,.31-6,1.37-11.88,3.25-17.57,.85-2.57,2.01-5.1,4.48-6.76,1.05-.7,1.87-.85,2.75-.03,.86,.79,1.81,1.58,2.39,2.57,1.25,2.14,1.77,4.53,2.26,6.98,.9,4.51,.92,9.04,.81,13.59Z"/>
</svg>